<svg xmlns="http://www.w3.org/2000/svg" width="14.837" height="11.87" viewBox="0 0 14.837 11.87">
  <path id="Icon_awesome-eye-slash" data-name="Icon awesome-eye-slash" d="M7.418,9.273A3.326,3.326,0,0,1,4.106,6.187L1.674,4.308A7.727,7.727,0,0,0,.823,5.6a.75.75,0,0,0,0,.677,7.435,7.435,0,0,0,6.6,4.113,7.2,7.2,0,0,0,1.806-.242l-1.2-.931A3.341,3.341,0,0,1,7.418,9.273Zm7.275,1.347L12.131,8.639a7.679,7.679,0,0,0,1.884-2.366.75.75,0,0,0,0-.677,7.435,7.435,0,0,0-6.6-4.113A7.144,7.144,0,0,0,4,2.357L1.054.078A.371.371,0,0,0,.533.143L.078.729a.371.371,0,0,0,.065.52l13.64,10.542a.371.371,0,0,0,.521-.065l.455-.586a.371.371,0,0,0-.065-.52ZM10.434,7.328l-.911-.7A2.2,2.2,0,0,0,6.832,3.8a1.1,1.1,0,0,1,.216.654,1.081,1.081,0,0,1-.036.232L5.305,3.364A3.3,3.3,0,0,1,7.418,2.6a3.336,3.336,0,0,1,3.338,3.338,3.259,3.259,0,0,1-.322,1.393Z" transform="translate(0 0)" fill="#9d9d9d"/>
</svg>
