<svg xmlns="http://www.w3.org/2000/svg" width="13.3" height="8.867" viewBox="0 0 13.3 8.867">
  <path id="Icon_awesome-eye" data-name="Icon awesome-eye" d="M13.22,8.6A7.406,7.406,0,0,0,6.65,4.5,7.407,7.407,0,0,0,.08,8.6a.747.747,0,0,0,0,.674,7.406,7.406,0,0,0,6.57,4.1,7.407,7.407,0,0,0,6.57-4.1A.747.747,0,0,0,13.22,8.6ZM6.65,12.259A3.325,3.325,0,1,1,9.975,8.933,3.325,3.325,0,0,1,6.65,12.259Zm0-5.542a2.2,2.2,0,0,0-.584.088A1.1,1.1,0,0,1,4.521,8.349,2.212,2.212,0,1,0,6.65,6.717Z" transform="translate(0 -4.5)" fill="#9d9d9d"/>
</svg>
