<svg xmlns="http://www.w3.org/2000/svg" width="24" height="20.646" viewBox="0 0 24 20.646">
  <g id="Group_10376" data-name="Group 10376" transform="translate(-386.581 -251.09)">
    <path id="Path_113" data-name="Path 113" d="M438.077,293.976a23.421,23.421,0,0,1-5.2-.491,1.293,1.293,0,0,0-1.386,1.062,1.247,1.247,0,0,0,1.063,1.387,17.076,17.076,0,0,0,4.354.54,2.979,2.979,0,0,0,1.51,1.131Z" transform="translate(-27.84 -26.277)"/>
    <path id="Path_114" data-name="Path 114" d="M419.5,254.848a1.881,1.881,0,1,0-1.968-1.789A1.882,1.882,0,0,0,419.5,254.848Z" transform="translate(-19.19 0)"/>
    <path id="Path_115" data-name="Path 115" d="M401.936,264.132c1.976.336,2.506-1.807.64-2.173a8.343,8.343,0,0,0-6.07,1.609c-1.212,1,.056,2.753,1.425,1.62A4.691,4.691,0,0,1,401.936,264.132Z" transform="translate(-5.852 -6.679)"/>
    <path id="Path_116" data-name="Path 116" d="M413.752,270.207s-.223-.347-.53-.863c3.831-3.991,1.33-7.211-4.029-6.554-1.952.239-2.045,1.173-2.036,2.378.017,2.3,2.363,5.862,2.363,5.862a4.836,4.836,0,0,0-4.952,2.8c-.466.828-.763,1.415-2.217,3.793a2.239,2.239,0,0,0-1.343,1.248l3.911.065,1.672-3.763c.194-.436.771-1.835,1.722-1.861a15.629,15.629,0,0,0,3.346-.095C413.75,272.673,414.483,271.376,413.752,270.207Zm-2.217-5.224c.653-.669,2.651.432.526,2.23C411.579,266.21,411.252,265.272,411.535,264.982Z" transform="translate(-8.946 -7.202)"/>
    <path id="Path_117" data-name="Path 117" d="M387.816,260.987a1.235,1.235,0,1,0,1.234,1.234A1.233,1.233,0,0,0,387.816,260.987Z" transform="translate(0 -6.137)"/>
  </g>
</svg>
