<svg xmlns="http://www.w3.org/2000/svg" width="17.592" height="24" viewBox="0 0 17.592 24">
  <g id="Group_9592" data-name="Group 9592" transform="translate(-515.117 -233.494)">
    <path id="Path_118" data-name="Path 118" d="M556.219,287.216a1.027,1.027,0,0,0-1.98.5c.07.518.848,6.57.848,6.57H558c-.076-.307-.579-.6-.647-.894C556.717,290.7,556.512,288.114,556.219,287.216Z" transform="translate(-27.121 -36.789)" fill="#0c2c47"/>
    <path id="Path_119" data-name="Path 119" d="M532.683,241.753a1.072,1.072,0,0,0-.607-.718,24.08,24.08,0,0,0-3.595.14,1.516,1.516,0,0,0,.011-.205,1.556,1.556,0,1,0-2.66,1.16l-6.093-.973c.084-.317.188-.642.286-.944a3.286,3.286,0,0,0,.3-1.469,9.627,9.627,0,0,1,2.185-2.792l.113-.082a3.064,3.064,0,0,0,1.607-2.162.19.19,0,0,0-.166-.212.19.19,0,0,0-.211.166c-.114.935-.734,1.382-1.452,1.9l-.113.082a10.316,10.316,0,0,0-3.231,5.405l-.363-.058a.125.125,0,0,0-.1.021.144.144,0,0,0-.062.1.142.142,0,0,0,.026.106.14.14,0,0,0,.093.056l.355.057c-.018.094-.038.186-.053.282-.012.078-.016.156-.025.235a.709.709,0,0,0-.044,1.124c.006.146.012.291.025.434l-3.522-.49a.237.237,0,0,0-.065.47l3.651.507a9.258,9.258,0,0,0,2.181,4.695c1.182,1.089,1.148,1.69,1.118,2.22l-.006.109a.19.19,0,0,0,.181.2h.009a.189.189,0,0,0,.189-.181l.006-.106c.033-.583.073-1.309-1.24-2.52a8.123,8.123,0,0,1-1.676-2.908c.264-.279.169-.708.04-1.3l-.022-.1,1.977.275.034,0a.237.237,0,0,0,.031-.472l-2.14-.3c-.02-.114-.038-.233-.053-.356a33.29,33.29,0,0,1,5.294,1.07c-.1.833-.14,2.578-.289,4.1-.339,1.59-.1.656-2.074,8.212a1.777,1.777,0,0,0-.771.959h2.911l1.739-8.208c1.4,0,2.023-.228,2.023-1.374v-4.1a.924.924,0,0,0-1.06-1.046,12.607,12.607,0,0,0-1.26.058c-.189.038-5.669-.834-6.5-1.065v-.006c.015-.1.037-.211.061-.32l6.726,1.073h.007a1.551,1.551,0,0,0,.609.093c.033,0,.063-.011.1-.014a1.3,1.3,0,0,0,.442.008,15.591,15.591,0,0,1,3.124-.381,3.786,3.786,0,0,1-1.54.834.712.712,0,1,0,.459,1.348,6.934,6.934,0,0,0,2.962-2.007A.713.713,0,0,0,532.683,241.753Z" transform="translate(0 0)" fill="#0c2c47"/>
  </g>
</svg>
