<svg id="Icon_ionic-ios-card" data-name="Icon ionic-ios-card" xmlns="http://www.w3.org/2000/svg" width="16" height="11" viewBox="0 0 16 11">
  <path id="Path_787" data-name="Path 787" d="M18.25,7.943A1.172,1.172,0,0,0,17.107,6.75H3.393A1.172,1.172,0,0,0,2.25,7.943v1.79h16Z" transform="translate(-2.25 -6.75)" fill="#20375f"/>
  <path id="Path_788" data-name="Path 788" d="M2.25,21.717A1.172,1.172,0,0,0,3.393,22.91H17.107a1.172,1.172,0,0,0,1.143-1.193V15.75h-16Zm5.071-1.79h5.857a.513.513,0,0,1,.5.522h0a.513.513,0,0,1-.5.522H7.321a.513.513,0,0,1-.5-.522h0A.513.513,0,0,1,7.321,19.927Zm-2.571,0h.429a.513.513,0,0,1,.5.522h0a.513.513,0,0,1-.5.522H4.75a.513.513,0,0,1-.5-.522h0A.513.513,0,0,1,4.75,19.927Z" transform="translate(-2.25 -11.91)" fill="#20375f"/>
</svg>
