<svg xmlns="http://www.w3.org/2000/svg" width="16" height="13.7" viewBox="0 0 16 13.7">
  <path id="Path_69056" data-name="Path 69056" d="M15.418,37.378a1.982,1.982,0,0,0-1.4-.582H1.987A1.987,1.987,0,0,0,0,38.783v1.041a3.132,3.132,0,0,0,1.969,2.908l.018.007,2.065.632a4.494,4.494,0,0,0,.332.388,22.173,22.173,0,0,0,2.026,1.748,3.379,3.379,0,0,1,.567.563.907.907,0,0,1,.121.217.556.556,0,0,1,.035.2v1.421a1.7,1.7,0,0,1-.078.531.926.926,0,0,1-.324.472.9.9,0,0,1-.544.162h-1.3V50.5h6.221V49.069h-1.3a.98.98,0,0,1-.393-.075.809.809,0,0,1-.39-.36,1.487,1.487,0,0,1-.164-.728V46.484a.57.57,0,0,1,.035-.2,1.241,1.241,0,0,1,.283-.41,10.8,10.8,0,0,1,1.008-.856,14.787,14.787,0,0,0,1.422-1.263,4.445,4.445,0,0,0,.332-.388l2.065-.633.018-.007A3.131,3.131,0,0,0,16,39.823V38.783A1.982,1.982,0,0,0,15.418,37.378ZM2.3,41.871A2.21,2.21,0,0,1,.921,39.823V38.783a1.066,1.066,0,0,1,1.066-1.066h.907c0,.214,0,.429,0,.642a14.083,14.083,0,0,0,.217,2.882,6.118,6.118,0,0,0,.286.966Zm3.381.81a4.315,4.315,0,0,1-1.334-2.512V37.736H5.679Zm9.4-2.857A2.211,2.211,0,0,1,13.7,41.871l-1.1.336a6.85,6.85,0,0,0,.4-1.666,17.879,17.879,0,0,0,.1-2.182c0-.213,0-.428,0-.642h.907a1.067,1.067,0,0,1,1.066,1.066Z" transform="translate(0 -36.796)" fill="#20375f"/>
</svg>
