<svg xmlns="http://www.w3.org/2000/svg" width="17" height="17" viewBox="0 0 17 17">
  <path id="Icon_awesome-history" data-name="Icon awesome-history" d="M17.562,9.046A8.5,8.5,0,0,1,3.728,15.68a.822.822,0,0,1-.063-1.22l.386-.386a.824.824,0,0,1,1.093-.068,6.307,6.307,0,1,0-.4-9.538l1.74,1.74a.548.548,0,0,1-.388.936H1.111a.548.548,0,0,1-.548-.548V1.612A.548.548,0,0,1,1.5,1.224L3.191,2.917a8.5,8.5,0,0,1,14.372,6.13Zm-6.2,2.7.337-.433a.823.823,0,0,0-.144-1.154L10.159,9.074V5.5a.823.823,0,0,0-.823-.823H8.788a.823.823,0,0,0-.823.823v4.649l2.242,1.744A.823.823,0,0,0,11.362,11.747Z" transform="translate(-0.563 -0.563)" fill="#20375f"/>
</svg>
