<svg xmlns="http://www.w3.org/2000/svg" width="18" height="14" viewBox="0 0 18 14">
  <path id="Icon_awesome-sign-out-alt" data-name="Icon awesome-sign-out-alt" d="M17.751,12.118l-6,6.124a.857.857,0,0,1-1.464-.62v-3.5H5.429a.864.864,0,0,1-.857-.875v-3.5a.864.864,0,0,1,.857-.875h4.857v-3.5a.857.857,0,0,1,1.464-.62l6,6.124A.9.9,0,0,1,17.751,12.118ZM6.857,18.06V16.6a.434.434,0,0,0-.429-.437h-3A1.154,1.154,0,0,1,2.286,15V8A1.154,1.154,0,0,1,3.429,6.832h3a.434.434,0,0,0,.429-.437V4.937A.434.434,0,0,0,6.429,4.5h-3A3.466,3.466,0,0,0,0,8v7a3.466,3.466,0,0,0,3.429,3.5h3A.434.434,0,0,0,6.857,18.06Z" transform="translate(0 -4.499)" fill="#20375f"/>
</svg>
