<svg xmlns="http://www.w3.org/2000/svg" width="24" height="92.646" viewBox="0 0 24 92.646">
  <g id="Group_10651" data-name="Group 10651" transform="translate(6721 12772.367)">
    <g id="Group_10645" data-name="Group 10645" transform="translate(-7233.117 -12937.215)">
      <path id="Path_118" data-name="Path 118" d="M556.219,287.216a1.027,1.027,0,0,0-1.98.5c.07.518.848,6.57.848,6.57H558c-.076-.307-.579-.6-.647-.894C556.717,290.7,556.512,288.114,556.219,287.216Z" transform="translate(-27.121 -36.789)" fill="#20375f"/>
      <path id="Path_119" data-name="Path 119" d="M532.683,241.753a1.072,1.072,0,0,0-.607-.718,24.08,24.08,0,0,0-3.595.14,1.516,1.516,0,0,0,.011-.205,1.556,1.556,0,1,0-2.66,1.16l-6.093-.973c.084-.317.188-.642.286-.944a3.286,3.286,0,0,0,.3-1.469,9.627,9.627,0,0,1,2.185-2.792l.113-.082a3.064,3.064,0,0,0,1.607-2.162.19.19,0,0,0-.166-.212.19.19,0,0,0-.211.166c-.114.935-.734,1.382-1.452,1.9l-.113.082a10.316,10.316,0,0,0-3.231,5.405l-.363-.058a.125.125,0,0,0-.1.021.144.144,0,0,0-.062.1.142.142,0,0,0,.026.106.14.14,0,0,0,.093.056l.355.057c-.018.094-.038.186-.053.282-.012.078-.016.156-.025.235a.709.709,0,0,0-.044,1.124c.006.146.012.291.025.434l-3.522-.49a.237.237,0,0,0-.065.47l3.651.507a9.258,9.258,0,0,0,2.181,4.695c1.182,1.089,1.148,1.69,1.118,2.22l-.006.109a.19.19,0,0,0,.181.2h.009a.189.189,0,0,0,.189-.181l.006-.106c.033-.583.073-1.309-1.24-2.52a8.123,8.123,0,0,1-1.676-2.908c.264-.279.169-.708.04-1.3l-.022-.1,1.977.275.034,0a.237.237,0,0,0,.031-.472l-2.14-.3c-.02-.114-.038-.233-.053-.356a33.29,33.29,0,0,1,5.294,1.07c-.1.833-.14,2.578-.289,4.1-.339,1.59-.1.656-2.074,8.212a1.777,1.777,0,0,0-.771.959h2.911l1.739-8.208c1.4,0,2.023-.228,2.023-1.374v-4.1a.924.924,0,0,0-1.06-1.046,12.607,12.607,0,0,0-1.26.058c-.189.038-5.669-.834-6.5-1.065v-.006c.015-.1.037-.211.061-.32l6.726,1.073h.007a1.551,1.551,0,0,0,.609.093c.033,0,.063-.011.1-.014a1.3,1.3,0,0,0,.442.008,15.591,15.591,0,0,1,3.124-.381,3.786,3.786,0,0,1-1.54.834.712.712,0,1,0,.459,1.348,6.934,6.934,0,0,0,2.962-2.007A.713.713,0,0,0,532.683,241.753Z" transform="translate(0 0)" fill="#20375f"/>
    </g>
    <g id="Group_10646" data-name="Group 10646" transform="translate(-7107.581 -12987.457)">
      <path id="Path_113" data-name="Path 113" d="M438.077,293.976a23.421,23.421,0,0,1-5.2-.491,1.293,1.293,0,0,0-1.386,1.062,1.247,1.247,0,0,0,1.063,1.387,17.076,17.076,0,0,0,4.354.54,2.979,2.979,0,0,0,1.51,1.131Z" transform="translate(-27.84 -26.277)" fill="#20375f"/>
      <path id="Path_114" data-name="Path 114" d="M419.5,254.848a1.881,1.881,0,1,0-1.968-1.789A1.882,1.882,0,0,0,419.5,254.848Z" transform="translate(-19.19 0)" fill="#20375f"/>
      <path id="Path_115" data-name="Path 115" d="M401.936,264.132c1.976.336,2.506-1.807.64-2.173a8.343,8.343,0,0,0-6.07,1.609c-1.212,1,.056,2.753,1.425,1.62A4.691,4.691,0,0,1,401.936,264.132Z" transform="translate(-5.852 -6.679)" fill="#20375f"/>
      <path id="Path_116" data-name="Path 116" d="M413.752,270.207s-.223-.347-.53-.863c3.831-3.991,1.33-7.211-4.029-6.554-1.952.239-2.045,1.173-2.036,2.378.017,2.3,2.363,5.862,2.363,5.862a4.836,4.836,0,0,0-4.952,2.8c-.466.828-.763,1.415-2.217,3.793a2.239,2.239,0,0,0-1.343,1.248l3.911.065,1.672-3.763c.194-.436.771-1.835,1.722-1.861a15.629,15.629,0,0,0,3.346-.095C413.75,272.673,414.483,271.376,413.752,270.207Zm-2.217-5.224c.653-.669,2.651.432.526,2.23C411.579,266.21,411.252,265.272,411.535,264.982Z" transform="translate(-8.946 -7.202)" fill="#20375f"/>
      <path id="Path_117" data-name="Path 117" d="M387.816,260.987a1.235,1.235,0,1,0,1.234,1.234A1.233,1.233,0,0,0,387.816,260.987Z" transform="translate(0 -6.137)" fill="#20375f"/>
    </g>
    <g id="Group_10647" data-name="Group 10647" transform="translate(-6990.523 -13014.133)">
      <path id="Path_110" data-name="Path 110" d="M293.028,251.224a1.791,1.791,0,1,0-1.874-1.7A1.793,1.793,0,0,0,293.028,251.224Z" transform="translate(-11.887 -3.751)" fill="#20375f"/>
      <path id="Path_111" data-name="Path 111" d="M306.556,291.884c-1.9-1.187-2.635.83-1.649,1.7a13.114,13.114,0,0,0,5,2.445,4.57,4.57,0,0,0,.606,1.242l1.059-3.165A23.961,23.961,0,0,1,306.556,291.884Z" transform="translate(-20.384 -31.746)" fill="#20375f"/>
      <path id="Path_112" data-name="Path 112" d="M285.658,254.921c-.03-.083-.06-.173-.089-.266a1.983,1.983,0,0,0,.248-.229c2.15-2.353,2.441-3.459.637-5.582-.377-.443-.5-1.33-.817-1.657a1.7,1.7,0,0,0-2.94.647c-1.855.166-3.706.8-4.752.245-.58-.309-.311-1.67-.338-2.829a1.338,1.338,0,0,0-.179-.661,1.485,1.485,0,0,0,.713-1.05c.034-.723-1.148-1.751-2.7-1.773s-2.81,1-2.918,1.693c-.076.492,1.147,1.75,2.7,1.772.093,0,.184,0,.275-.006a2.178,2.178,0,0,0-.028.26c-.075,2.05.277,4.042,1.05,4.393a10.686,10.686,0,0,0,3.252.34,39.32,39.32,0,0,0,2.017,5.948c-2.389.593-2.806,2.505-3.428,4.263a29.1,29.1,0,0,1-1.933,4.3s-1.058.3-1.337,1.036l4.174-.017c.6-1.708,1.051-3.9,1.438-4.8.522-1.22,1.172-2.133,3.4-2.6C285.717,258.011,286.213,256.453,285.658,254.921Zm-.771-4.85c.427.67,1.132,1.265.177,2.383-.119-.657-.215-1.277-.278-1.7a5.048,5.048,0,0,1-.024-.783A.3.3,0,0,1,284.886,250.071Z" transform="translate(0 0)" fill="#20375f"/>
    </g>
  </g>
</svg>
