<svg xmlns="http://www.w3.org/2000/svg" width="26.95" height="26.95" viewBox="0 0 26.95 26.95">
  <path id="Path_69952" data-name="Path 69952" d="M13.475,0A13.475,13.475,0,1,0,26.95,13.475,13.475,13.475,0,0,0,13.475,0Zm0,21.155c-3.645,0-6.249-.5-6.188-.951.331-2.48,2.331-2.718,3.6-3.734.57-.456.847-.342.847-1.1V14.152c-.342-.38-.467-.333-.756-1.825-.585,0-.547-.76-.823-1.435-.215-.526-.052-.752.129-.851A4.823,4.823,0,0,1,11,6.87l-.118-.824a2.151,2.151,0,0,0,.824-.059c.589-.117,2-.47,2.824.236,1.977.291,2.5,1.914,2.116,3.807.189.091.378.314.153.863-.276.674-.238,1.435-.823,1.435-.289,1.492-.414,1.445-.756,1.825v1.216c0,.76.277.646.847,1.1,1.27,1.016,3.269,1.254,3.6,3.734C19.724,20.659,17.12,21.154,13.475,21.155Z" fill="#20375f"/>
</svg>
