<svg xmlns="http://www.w3.org/2000/svg" width="57.133" height="65.464" viewBox="0 0 57.133 65.464">
  <g id="Group_10777" data-name="Group 10777" transform="translate(-460.057 -680)">
    <g id="メモ帳_書類のアイコン素材_その2" data-name="メモ帳、書類のアイコン素材 その2" transform="translate(460.057 680)">
      <path id="Path_69961" data-name="Path 69961" d="M86.661,0H49.739A8.835,8.835,0,0,0,44.32,2.243l-9.373,9.368A8.825,8.825,0,0,0,32.7,17.027V62.292a3.183,3.183,0,0,0,3.174,3.172H86.661a3.183,3.183,0,0,0,3.174-3.172V3.172A3.183,3.183,0,0,0,86.661,0ZM60.531,41.278a.564.564,0,0,1-.564.564H45.649a.564.564,0,0,1-.564-.564V39.3a.564.564,0,0,1,.564-.564H59.968a.564.564,0,0,1,.564.564v1.98Zm16.922-9.686a.564.564,0,0,1-.564.564H45.649a.564.564,0,0,1-.564-.564v-1.98a.564.564,0,0,1,.564-.564H76.89a.564.564,0,0,1,.564.564v1.98Zm0-9.686a.564.564,0,0,1-.564.564H45.649a.564.564,0,0,1-.564-.564v-1.98a.564.564,0,0,1,.564-.564H76.89a.564.564,0,0,1,.564.564v1.98Z" transform="translate(-32.703)" fill="#20375f"/>
    </g>
    <g id="入賞などのシールアイコン素材_その2" data-name="入賞などのシールアイコン素材 その2" transform="translate(493.78 718.895)">
      <path id="Path_69962" data-name="Path 69962" d="M60.943,328.073c-.094-.077-.19-.152-.28-.233v0l-.007-.006L58.4,332.664l-.065.173.085.135a.324.324,0,0,0,.273.15h.053l2.154-.67.852,2.039a.327.327,0,0,0,.3.2.324.324,0,0,0,.294-.188l1.743-3.733.515-1.1h0l0-.008A7.588,7.588,0,0,1,60.943,328.073Z" transform="translate(-58.336 -315.633)" fill="#fff"/>
      <path id="Path_69963" data-name="Path 69963" d="M289.59,328.932l-.506-1.089,0,0,0-.008a7.588,7.588,0,0,1-3.649,1.771c-.1.017-.194.037-.292.05v0l-.009,0,2.26,4.842a.324.324,0,0,0,.594-.012l.852-2.039,2.113.655.05.015h.044a.325.325,0,0,0,.273-.15l.088-.165Z" transform="translate(-276.687 -315.634)" fill="#fff"/>
      <path id="Path_69964" data-name="Path 69964" d="M95.185,6.464a6.464,6.464,0,1,0-6.464,6.464A6.464,6.464,0,0,0,95.185,6.464ZM88.72,9.458a2.993,2.993,0,1,1,2.994-2.994A3,3,0,0,1,88.72,9.458Z" transform="translate(-81.366 0)" fill="#fff"/>
    </g>
  </g>
</svg>
