<svg xmlns="http://www.w3.org/2000/svg" width="58.044" height="62.813" viewBox="0 0 58.044 62.813">
  <g id="プレゼントのフリーアイコン素材" transform="translate(-18.178)">
    <g id="Group_10665" data-name="Group 10665" transform="translate(0 0.333)">
      <path id="Path_69940" data-name="Path 69940" d="M76.16,301.443a6.923,6.923,0,0,0,6.923,6.923h11.4v-28.3H76.16Z" transform="translate(-50.906 -245.886)" fill="#20375f"/>
      <path id="Path_69941" data-name="Path 69941" d="M285.7,308.366h11.4a6.923,6.923,0,0,0,6.923-6.923V280.062H285.7Z" transform="translate(-234.875 -245.886)" fill="#20375f"/>
    </g>
    <path id="Path_69939" data-name="Path 69939" d="M70.5,17l-4.81-.025c4.246-2.6,6.141-7.637,4.256-11.778A9.253,9.253,0,0,0,61.52,0a9.476,9.476,0,0,0-4.547,1.161,24.255,24.255,0,0,0-7.62,6.715l-.1.131q-.438.581-.833,1.161c-.107.155-.215.307-.32.466s-.218.343-.327.514c-.195.3-.392.6-.58.914a26.146,26.146,0,0,0-9.765-9.9A9.476,9.476,0,0,0,32.88,0a9.253,9.253,0,0,0-8.426,5.2,9.144,9.144,0,0,0,2.336,10.283A11.2,11.2,0,0,0,28.7,17H18.178v13.03a.475.475,0,0,0,.475.475H43.576V17.092h7.248V30.509H75.747a.475.475,0,0,0,.475-.475V17Zm-30.418-3.28a18.49,18.49,0,0,1-7.69-1.5,4.822,4.822,0,0,1-2.433-2.367,2.738,2.738,0,0,1-.088-2.189,3.361,3.361,0,0,1,3.011-1.716,3.527,3.527,0,0,1,1.7.438A19.159,19.159,0,0,1,41.1,12.56c.238.358.472.725.7,1.107C41.248,13.7,40.673,13.724,40.082,13.724ZM64.441,9.856a4.822,4.822,0,0,1-2.434,2.367,18.489,18.489,0,0,1-7.69,1.5c-.522,0-1.027-.022-1.521-.051-.069-.008-.138-.01-.207-.02a19.948,19.948,0,0,1,7.227-7.266,3.529,3.529,0,0,1,1.7-.438,3.361,3.361,0,0,1,3.01,1.716A2.736,2.736,0,0,1,64.441,9.856Z" transform="translate(0 0)" fill="#20375f"/>
  </g>
</svg>
