<svg xmlns="http://www.w3.org/2000/svg" width="29" height="23" viewBox="0 0 29 23">
  <path id="Icon_awesome-school" data-name="Icon awesome-school" d="M0,10.062V22.281A.722.722,0,0,0,.725,23H4.35V8.625H1.45A1.444,1.444,0,0,0,0,10.062ZM16.313,7.906H15.225v-1.8a.361.361,0,0,0-.363-.359h-.725a.361.361,0,0,0-.363.359V8.984a.361.361,0,0,0,.363.359h2.175a.361.361,0,0,0,.363-.359V8.266A.361.361,0,0,0,16.313,7.906Zm6.242-2.873L15.3.241a1.461,1.461,0,0,0-1.609,0L6.446,5.033a1.434,1.434,0,0,0-.646,1.2V23h5.8V16.531a.722.722,0,0,1,.725-.719h4.35a.722.722,0,0,1,.725.719V23h5.8V6.229a1.435,1.435,0,0,0-.646-1.2ZM14.5,11.5a3.594,3.594,0,1,1,3.625-3.594A3.61,3.61,0,0,1,14.5,11.5ZM27.55,8.625h-2.9V23h3.625A.722.722,0,0,0,29,22.281V10.062A1.444,1.444,0,0,0,27.55,8.625Z" fill="#20375f"/>
</svg>
