<svg xmlns="http://www.w3.org/2000/svg" width="60" height="60" viewBox="0 0 60 60">
  <path id="Path_70003" data-name="Path 70003" d="M30,0A30,30,0,1,0,60,30,30,30,0,0,0,30,0Zm0,47.1c-8.115,0-13.912-1.106-13.777-2.116.737-5.52,5.189-6.051,8.016-8.313,1.269-1.016,1.886-.762,1.886-2.454V31.507c-.762-.846-1.039-.74-1.684-4.062-1.3,0-1.218-1.693-1.833-3.194-.479-1.17-.116-1.675.286-1.894-.217-1.157-.08-5.04,1.586-7.062l-.263-1.834a4.788,4.788,0,0,0,1.834-.131c1.31-.261,4.454-1.046,6.288.525,4.4.647,5.57,4.262,4.711,8.476.422.2.841.7.34,1.921-.614,1.5-.53,3.194-1.832,3.194-.644,3.322-.921,3.216-1.684,4.062v2.708c0,1.693.617,1.439,1.886,2.454,2.827,2.262,7.279,2.793,8.016,8.313C43.912,45.993,38.115,47.1,30,47.1Z" fill="#20375f"/>
</svg>
