<svg xmlns="http://www.w3.org/2000/svg" width="18.668" height="24" viewBox="0 0 18.668 24">
  <g id="Group_9590" data-name="Group 9590" transform="translate(-272.523 -241.766)">
    <path id="Path_110" data-name="Path 110" d="M293.028,251.224a1.791,1.791,0,1,0-1.874-1.7A1.793,1.793,0,0,0,293.028,251.224Z" transform="translate(-11.887 -3.751)" fill="#0c2c47"/>
    <path id="Path_111" data-name="Path 111" d="M306.556,291.884c-1.9-1.187-2.635.83-1.649,1.7a13.114,13.114,0,0,0,5,2.445,4.57,4.57,0,0,0,.606,1.242l1.059-3.165A23.961,23.961,0,0,1,306.556,291.884Z" transform="translate(-20.384 -31.746)" fill="#0c2c47"/>
    <path id="Path_112" data-name="Path 112" d="M285.658,254.921c-.03-.083-.06-.173-.089-.266a1.983,1.983,0,0,0,.248-.229c2.15-2.353,2.441-3.459.637-5.582-.377-.443-.5-1.33-.817-1.657a1.7,1.7,0,0,0-2.94.647c-1.855.166-3.706.8-4.752.245-.58-.309-.311-1.67-.338-2.829a1.338,1.338,0,0,0-.179-.661,1.485,1.485,0,0,0,.713-1.05c.034-.723-1.148-1.751-2.7-1.773s-2.81,1-2.918,1.693c-.076.492,1.147,1.75,2.7,1.772.093,0,.184,0,.275-.006a2.178,2.178,0,0,0-.028.26c-.075,2.05.277,4.042,1.05,4.393a10.686,10.686,0,0,0,3.252.34,39.32,39.32,0,0,0,2.017,5.948c-2.389.593-2.806,2.505-3.428,4.263a29.1,29.1,0,0,1-1.933,4.3s-1.058.3-1.337,1.036l4.174-.017c.6-1.708,1.051-3.9,1.438-4.8.522-1.22,1.172-2.133,3.4-2.6C285.717,258.011,286.213,256.453,285.658,254.921Zm-.771-4.85c.427.67,1.132,1.265.177,2.383-.119-.657-.215-1.277-.278-1.7a5.048,5.048,0,0,1-.024-.783A.3.3,0,0,1,284.886,250.071Z" transform="translate(0 0)" fill="#0c2c47"/>
  </g>
</svg>
