<svg xmlns="http://www.w3.org/2000/svg" width="34.607" height="37.622" viewBox="0 0 34.607 37.622">
  <g id="Group_9761" data-name="Group 9761" transform="translate(-13164 10265)">
    <g id="回転ロックアイコン1" transform="translate(13164 -10265)">
      <path id="Path_69041" data-name="Path 69041" d="M199.426,2.672V0l-6.1,4.068,6.1,3.56V5.4a13.55,13.55,0,0,1,12.056,13.471h2.712A16.272,16.272,0,0,0,199.426,2.672Z" transform="translate(-179.587)" fill="#20375f"/>
      <path id="Path_69042" data-name="Path 69042" d="M49.143,270.306A13.559,13.559,0,0,1,36.906,257l-2.712.037a16.271,16.271,0,0,0,14.986,16l.036,2.674,6.046-4.151-6.149-3.476Z" transform="translate(-34.194 -238.082)" fill="#20375f"/>
    </g>
    <g id="コイン型の円アイコン" transform="translate(13172.101 -10255.392)">
      <path id="Path_69047" data-name="Path 69047" d="M186.233,170.863h-1.862l-.2.311v.745h2.062v1.058h-2.062v1.6H182.89v-1.6h-2.062v-1.058h2.062v-.744l-.2-.312h-1.862v-.9h1.28l-1.088-1.694H182.1l1.425,2.217,1.426-2.217h1.085l-1.088,1.694h1.28Z" transform="translate(-174.327 -162.217)" fill="#20375f"/>
      <path id="Path_69048" data-name="Path 69048" d="M9.2,0a9.2,9.2,0,1,0,9.2,9.2A9.2,9.2,0,0,0,9.2,0Zm0,16.682A7.478,7.478,0,1,1,16.682,9.2,7.487,7.487,0,0,1,9.2,16.682Z" fill="#20375f"/>
      <path id="Path_69049" data-name="Path 69049" d="M86.328,80a6.328,6.328,0,1,0,6.328,6.328A6.335,6.335,0,0,0,86.328,80Zm0,12.08a5.752,5.752,0,1,1,5.752-5.752A5.759,5.759,0,0,1,86.328,92.08Z" transform="translate(-77.124 -77.124)" fill="#20375f"/>
    </g>
  </g>
</svg>
