<svg xmlns="http://www.w3.org/2000/svg" width="32" height="32" viewBox="0 0 32 32">
  <g id="Group_8912" data-name="Group 8912" transform="translate(-156 -119)">
    <circle id="b232397276e24f71fe6dade0bcfc1b2a" cx="16" cy="16" r="16" transform="translate(156 119)" fill="#fff"/>
    <path id="iconmonstr-user-19" d="M16,0A16,16,0,1,0,32,16,16,16,0,0,0,16,0Zm0,29.333a13.311,13.311,0,0,1-10.332-4.92,3.143,3.143,0,0,1,2.489-1.661c2.992-.691,5.945-1.308,4.524-3.927C8.475,11.065,11.483,6.667,16,6.667c4.429,0,7.512,4.236,3.319,12.159-1.38,2.6,1.467,3.221,4.524,3.927a3.162,3.162,0,0,1,2.495,1.655A13.309,13.309,0,0,1,16,29.333Z" transform="translate(156 119)" fill="#9d9d9d"/>
  </g>
</svg>
