<svg xmlns="http://www.w3.org/2000/svg" width="36.874" height="32.735" viewBox="0 0 36.874 32.735">
  <g id="イイネの手のフリーアイコン" transform="translate(-0.001 -28.734)">
    <path id="Path_69124" data-name="Path 69124" d="M160.133,42.747a4.853,4.853,0,0,0-4.5-2.962h-5.7c-.181,0-.342,0-.486-.007l.12-.159c.2-.257.354-.461.479-.662.05-.066.122-.147.206-.249a9.994,9.994,0,0,0,2.487-4.833,4.507,4.507,0,0,0-1.034-3.638,4.1,4.1,0,0,0-3.033-1.5,2.989,2.989,0,0,0-2.63,1.51c-.083.14-.182.317-.3.523a13.868,13.868,0,0,1-2.857,3.894,24.165,24.165,0,0,0-3.547,3.418c-1.523,1.679-3.1,3.414-4.368,3.414a1.8,1.8,0,0,0-1.8,1.8v12.28a1.8,1.8,0,0,0,1.8,1.8c1.322,0,4.3,1.148,6.481,1.987a30.584,30.584,0,0,0,4.084,1.392c.287.057.583.124.887.19a17.016,17.016,0,0,0,3.639.528,5.372,5.372,0,0,0,4.595-2.148c1.023-1.388,2.191-4.992,3.732-9.934.1-.339.209-.672.309-.994C161.032,45.907,160.491,43.635,160.133,42.747Zm-3.023,4.691c-1.227,3.9-2.861,9.4-3.9,10.816a3.63,3.63,0,0,1-3.145,1.415,22.08,22.08,0,0,1-4.173-.683c-2.153-.431-8.234-3.414-10.918-3.414V43.292c3.258,0,5.843-4.915,8.969-7.173,1.685-1.219,3.1-4.018,3.65-4.963a1.2,1.2,0,0,1,1.08-.625,2.644,2.644,0,0,1,2.29,3.06c-.375,2.339-2.153,3.932-2.434,4.4s-1.5,1.779-1.5,2.527c0,.656.467,1.067,2.9,1.067h5.7C158.073,41.585,160.222,44.451,157.111,47.439Z" transform="translate(-123.58 0)" fill="#20375f"/>
    <path id="Path_69125" data-name="Path 69125" d="M0,217.878v11.395a2.55,2.55,0,0,0,2.55,2.55H5.593a1.7,1.7,0,0,0,1.7-1.7V215.328H2.551A2.549,2.549,0,0,0,0,217.878Zm3.586,8.887a1.17,1.17,0,1,1-1.171,1.17A1.17,1.17,0,0,1,3.587,226.764Z" transform="translate(0 -173.156)" fill="#20375f"/>
  </g>
</svg>
