<svg width="221" height="51" viewBox="0 0 221 51" fill="none" xmlns="http://www.w3.org/2000/svg">
<path d="M76.8123 28.7453L79.4878 18.0294H85.052L79.5245 35.0595H74.1368L68.6094 18.0294H74.1882L76.8123 28.7453Z" fill="white"/>
<path d="M105.934 35.0521H100.465V25.481H92.3655V35.0521H86.8674V12.136H92.3655V21.2345H100.465V12.136H105.934V35.0521Z" fill="white"/>
<path d="M118.709 35.0522C118.518 34.705 118.356 34.1955 118.209 33.5234C117.239 34.7494 115.879 35.3623 114.137 35.3623C112.542 35.3623 111.182 34.8749 110.065 33.9075C108.948 32.94 108.389 31.7141 108.389 30.2518C108.389 28.4055 109.065 27.0097 110.425 26.0644C111.785 25.1191 113.755 24.6465 116.35 24.6465H117.981V23.7455C117.981 22.1725 117.305 21.3896 115.96 21.3896C114.703 21.3896 114.078 22.01 114.078 23.2581H108.801C108.801 21.6112 109.499 20.2745 110.888 19.248C112.285 18.2214 114.064 17.7045 116.225 17.7045C118.386 17.7045 120.091 18.2362 121.348 19.2923C122.597 20.3557 123.244 21.8032 123.273 23.6495V31.1897C123.296 32.7554 123.538 33.9518 123.994 34.7789V35.0448H118.709V35.0522ZM115.409 31.5885C116.07 31.5885 116.614 31.4482 117.048 31.1602C117.481 30.8795 117.79 30.5546 117.981 30.2001V27.475H116.445C114.608 27.475 113.689 28.3021 113.689 29.9638C113.689 30.4438 113.85 30.8352 114.174 31.138C114.49 31.4408 114.909 31.5885 115.409 31.5885Z" fill="white"/>
<path d="M131.043 18.022L131.212 20.0234C132.38 18.4799 133.998 17.7119 136.048 17.7119C137.812 17.7119 139.128 18.2436 140.003 19.2997C140.877 20.3631 141.326 21.9509 141.355 24.0852V35.0522H136.063V24.3068C136.063 23.4501 135.894 22.815 135.548 22.4088C135.203 22.0026 134.578 21.8032 133.667 21.8032C132.63 21.8032 131.866 22.2094 131.366 23.0292V35.0522H126.089V18.022H131.043Z" fill="white"/>
<path d="M143.619 26.4115C143.619 23.716 144.2 21.589 145.361 20.0382C146.522 18.4873 148.14 17.7118 150.22 17.7118C151.734 17.7118 153.005 18.31 154.042 19.5064V10.8806H159.334V35.0521H154.586L154.321 33.228C153.233 34.6533 151.859 35.3697 150.183 35.3697C148.169 35.3697 146.567 34.5943 145.391 33.0434C144.207 31.4851 143.619 29.277 143.619 26.4115ZM148.897 26.7439C148.897 29.7644 149.771 31.2783 151.528 31.2783C152.697 31.2783 153.535 30.7835 154.034 29.8013V23.3172C153.557 22.3128 152.726 21.8032 151.557 21.8032C149.926 21.8032 149.044 23.1251 148.911 25.769L148.897 26.7439Z" fill="white"/>
<path d="M162.289 13.6352C162.289 12.882 162.561 12.2616 163.105 11.7816C163.649 11.3015 164.354 11.0578 165.222 11.0578C166.089 11.0578 166.795 11.3015 167.338 11.7816C167.882 12.2616 168.154 12.882 168.154 13.6352C168.154 14.3885 167.882 15.0089 167.338 15.4889C166.795 15.9689 166.089 16.2127 165.222 16.2127C164.354 16.2127 163.649 15.9689 163.105 15.4889C162.561 15.0089 162.289 14.3885 162.289 13.6352ZM167.897 35.0521H162.605V18.022H167.897V35.0521Z" fill="white"/>
<path d="M178.312 31.2783C179.055 31.2783 179.628 31.0789 180.032 30.6728C180.437 30.2666 180.635 29.7053 180.628 28.9816H185.575C185.575 30.85 184.906 32.3787 183.575 33.5751C182.245 34.7715 180.532 35.3697 178.43 35.3697C175.968 35.3697 174.02 34.5943 172.601 33.0434C171.183 31.4925 170.47 29.3434 170.47 26.5888V26.3672C170.47 24.6465 170.786 23.1252 171.418 21.8106C172.05 20.496 172.961 19.4843 174.152 18.7753C175.343 18.0663 176.754 17.7119 178.379 17.7119C180.584 17.7119 182.333 18.3248 183.627 19.5508C184.92 20.7767 185.567 22.4383 185.567 24.5431H180.62C180.62 23.6643 180.407 22.9848 179.981 22.5122C179.555 22.0395 178.981 21.8032 178.261 21.8032C176.894 21.8032 176.093 22.682 175.865 24.4323C175.791 24.9862 175.755 25.7543 175.755 26.7291C175.755 28.4425 175.96 29.6241 176.365 30.2887C176.776 30.946 177.423 31.2783 178.312 31.2783Z" fill="white"/>
<path d="M197.357 35.0522C197.166 34.705 197.004 34.1955 196.857 33.5234C195.887 34.7494 194.527 35.3623 192.785 35.3623C191.19 35.3623 189.83 34.8749 188.713 33.9075C187.596 32.94 187.037 31.7141 187.037 30.2518C187.037 28.4055 187.713 27.0097 189.073 26.0644C190.433 25.1191 192.403 24.6465 194.997 24.6465H196.629V23.7455C196.629 22.1725 195.953 21.3896 194.608 21.3896C193.358 21.3896 192.726 22.01 192.726 23.2581H187.449C187.449 21.6112 188.147 20.2745 189.536 19.248C190.933 18.2214 192.712 17.7045 194.873 17.7045C197.033 17.7045 198.739 18.2362 199.996 19.2923C201.245 20.3557 201.892 21.8032 201.921 23.6495V31.1897C201.943 32.7554 202.186 33.9518 202.642 34.7789V35.0448H197.357V35.0522ZM194.057 31.5885C194.718 31.5885 195.262 31.4482 195.696 31.1602C196.129 30.8795 196.438 30.5546 196.629 30.2001V27.475H195.093C193.255 27.475 192.337 28.3021 192.337 29.9638C192.337 30.4438 192.498 30.8352 192.822 31.138C193.138 31.4408 193.557 31.5885 194.057 31.5885Z" fill="white"/>
<path d="M220.577 26.6626C220.577 29.3065 219.981 31.4187 218.798 32.9991C217.614 34.5795 216.012 35.3697 213.998 35.3697C212.44 35.3697 211.161 34.8011 210.161 33.6564V41.6028H204.884V18.022H209.816L209.97 19.5951C210.984 18.3322 212.315 17.7045 213.961 17.7045C216.049 17.7045 217.673 18.4799 218.834 20.0234C219.996 21.5669 220.577 23.7012 220.577 26.4042V26.6626ZM215.299 26.3303C215.299 23.3098 214.424 21.7958 212.668 21.7958C211.411 21.7958 210.58 22.2463 210.161 23.1473V29.853C210.617 30.7983 211.47 31.271 212.697 31.271C214.38 31.271 215.248 29.8161 215.299 26.899V26.3303Z" fill="white"/>
<path fill-rule="evenodd" clip-rule="evenodd" d="M33.4382 0.35675C39.1714 0.452757 44.3533 2.15872 48.8738 5.7479C52.2916 8.46563 54.8495 11.8554 56.5769 15.8729C57.4001 17.7857 57.9734 19.7723 58.3115 21.8327C58.6202 23.7307 58.7231 25.6435 58.5761 27.5562C58.2454 31.943 56.8341 35.9605 54.4012 39.6161C51.7404 43.6041 48.3078 46.7354 44.0299 48.914C43.1773 49.3497 42.2879 49.6969 41.3397 49.8593C41.2001 49.8815 41.0604 49.8889 40.8914 49.8889C40.9649 49.7486 41.0825 49.6895 41.178 49.6082C42.4202 48.5669 43.6918 47.5699 44.8899 46.4843C46.3232 45.1845 47.4478 43.6558 48.396 41.972C49.8073 39.4537 50.8363 36.795 51.4317 33.9665C51.6963 32.7036 51.88 31.426 51.9829 30.1336C52.0711 29.0628 52.1079 27.9845 52.0564 26.9137C51.9462 24.4988 51.6301 22.1281 50.6525 19.8904C50.3291 19.1445 49.9249 18.443 49.3515 17.8595C48.2784 16.7665 47.0288 16.7296 45.8748 17.7414C45.2207 18.31 44.7135 19.0042 44.2945 19.7575C43.2802 21.5742 42.2953 23.4131 41.2295 25.2077C39.5536 28.0436 37.7969 30.8278 35.7535 33.42C34.7171 34.7419 33.6219 36.0048 32.3283 37.083C31.505 37.7699 30.6304 38.3828 29.5572 38.6339C28.5355 38.8776 27.6682 38.5896 26.9479 37.8363C26.3378 37.1938 25.86 36.4553 25.3676 35.7168C23.7431 33.2575 22.104 30.8131 20.3106 28.4794C17.2381 24.484 13.8276 20.7988 10.1157 17.3943C8.57215 15.9763 7.01389 14.5731 5.36008 13.2881C3.74301 12.0253 2.0745 10.8289 0.428035 9.60294C0.391283 9.5734 0.354532 9.54386 0.28838 9.49955C0.413335 9.4774 0.494188 9.52909 0.567691 9.55125C3.86062 10.6147 6.99919 12.04 10.0496 13.6648C14.298 15.9246 18.3113 18.5463 21.9864 21.6629C23.3683 22.8371 24.5811 24.1812 25.86 25.4662C26.8523 26.4632 27.8225 27.475 28.8075 28.4867C28.8222 28.5015 28.8369 28.5089 28.8589 28.5237C28.8957 28.4203 28.8222 28.3686 28.7781 28.3095C26.1099 24.6391 23.3389 21.0499 20.2591 17.7192C17.5468 14.7873 14.5847 12.1287 11.4167 9.69895C7.85182 6.97383 4.08848 4.52935 0.30308 2.1218C0.214877 2.0701 0.134024 2.01102 0.0678711 1.91501C0.54564 2.04056 1.02341 2.15872 1.49383 2.29166C6.26416 3.62098 10.8507 5.43772 15.305 7.59418C15.4961 7.68281 15.599 7.66804 15.746 7.52772C17.1279 6.16885 18.6273 4.97246 20.2885 3.97547C22.8244 2.45413 25.5366 1.39067 28.44 0.829399C29.6013 0.607845 30.7627 0.460142 31.9387 0.401061C31.9828 0.401061 32.0343 0.415832 32.0563 0.35675C32.5194 0.35675 32.9751 0.35675 33.4382 0.35675Z" fill="white"/>
<path fill-rule="evenodd" clip-rule="evenodd" d="M2.22154 17.5863C3.09622 17.8521 3.91211 18.2435 4.71329 18.6719C6.71256 19.728 8.51338 21.0647 10.226 22.5417C12.8133 24.772 15.136 27.2608 17.297 29.8973C20.3179 33.5899 22.9934 37.5188 25.3235 41.684C26.8303 44.3796 28.1754 47.1416 29.175 50.0735C29.2559 50.3172 29.322 50.5757 29.4176 50.8194C29.4764 50.9819 29.4323 51.0114 29.2779 50.9966C28.5062 50.908 27.7491 50.7751 26.992 50.6052C23.6182 49.8667 20.5017 48.5374 17.6865 46.5139C13.5116 43.5229 10.5421 39.5866 8.71184 34.7863C8.07972 33.132 7.6387 31.426 7.37409 29.6757C7.15358 28.2356 7.02863 26.7882 7.05803 25.3333C7.07273 24.4766 7.13153 23.6199 7.27854 22.7706C7.31529 22.5565 7.25648 22.394 7.11683 22.2315C6.3524 21.3232 5.49977 20.5034 4.62508 19.7058C3.868 19.019 3.08887 18.3543 2.28769 17.7118C2.25094 17.6823 2.22154 17.6454 2.19214 17.6084C2.20684 17.601 2.21419 17.5937 2.22154 17.5863Z" fill="white"/>
<path fill-rule="evenodd" clip-rule="evenodd" d="M2.19953 17.6084C2.17747 17.601 2.13337 17.601 2.15542 17.5641C2.17012 17.542 2.20688 17.5494 2.22893 17.5789C2.21423 17.5937 2.20688 17.601 2.19953 17.6084Z" fill="white"/>
</svg>
