<svg width="36" height="36" viewBox="0 0 36 36" fill="none" xmlns="http://www.w3.org/2000/svg">
<path d="M11.4813 8.53628C12.3191 8.53628 13.0017 7.84853 13.0017 7.00447C13.0017 6.16041 12.3191 5.47266 11.4813 5.47266C10.6436 5.47266 9.96094 6.16041 9.96094 7.00447C9.96094 7.84853 10.6436 8.53628 11.4813 8.53628Z" fill="#59A7DC"/>
<path d="M23.4279 4.44141C22.3729 4.44141 21.5352 5.28547 21.5352 6.34836C21.5352 7.41125 22.3729 8.25531 23.4279 8.25531C24.4828 8.25531 25.3206 7.41125 25.3206 6.34836C25.3206 5.28547 24.4828 4.44141 23.4279 4.44141Z" fill="#59A7DC"/>
<path d="M2.54405 16.7267C3.35079 16.7267 4.03341 16.0702 4.03341 15.2261C4.03341 14.4133 3.38182 13.7256 2.54405 13.7256C1.73731 13.7256 1.05469 14.3821 1.05469 15.2261C1.08572 16.0702 1.73731 16.7267 2.54405 16.7267Z" fill="#59A7DC"/>
<path d="M18.4309 35.3901C10.5807 35.3901 4.21986 28.9815 4.21986 21.0723C4.21986 20.5096 4.25089 19.9469 4.31294 19.3842C6.17465 18.6339 7.69504 17.2272 8.59486 15.4453C8.65692 15.3202 8.71897 15.1014 8.71897 14.9763C8.71897 14.5387 8.37766 14.2573 7.94326 14.2573C7.60195 14.2573 7.3227 14.4762 7.19858 14.7888C6.54699 16.5707 4.84043 17.8211 2.85461 17.8211C1.76862 17.8211 0.775709 17.446 0 16.8208C0.0310284 17.2584 0 17.6961 0 18.165C0 18.3838 0 18.6027 0 18.8215V18.8528C0 18.9778 0 19.1029 0.0310284 19.2592C0.0310284 19.2904 0.0310284 19.3217 0.0310284 19.3217C0.0310284 19.4467 0.0620568 19.5405 0.0620568 19.6656C0.0620568 19.6968 0.0620568 19.7281 0.0620568 19.7594C0.0620568 19.7906 0.0620568 19.8219 0.0620568 19.8531C0.899823 28.7939 8.37766 35.7965 17.469 35.7965C17.9965 35.7965 18.5239 35.7652 19.0514 35.734C18.9894 35.6089 18.9273 35.4839 18.8653 35.3901C18.7411 35.3588 18.586 35.3901 18.4309 35.3901Z" fill="#59A7DC"/>
<path d="M1.92508 12.9124C2.1733 12.8499 2.29742 12.2872 2.48359 11.8183C2.57667 11.6619 2.73181 11.5682 3.01107 11.6619C3.2593 11.7557 5.05894 12.8186 7.26196 14.6943C7.26196 14.6943 7.26196 14.7256 7.23093 14.7256L7.85149 14.538L7.78944 14.2566C6.67242 13.3501 4.4694 11.6932 2.66976 11.1305C2.20433 11.0055 1.49068 11.5994 1.36656 11.6932C1.30451 11.8183 0.932167 12.0996 1.14937 12.506C1.36656 12.8811 1.67685 12.9749 1.92508 12.9124Z" fill="#59A7DC"/>
<path d="M19.9845 7.66058C19.9845 6.28507 18.8675 5.19092 17.5333 5.19092C16.168 5.19092 15.082 6.31633 15.082 7.66058C15.082 9.00482 16.1991 10.1302 17.5333 10.1302C18.8675 10.1302 19.9845 9.00482 19.9845 7.66058Z" fill="#5EA72A"/>
<path d="M17.0924 3.24965C17.6861 2.65145 17.6861 1.68156 17.0924 1.08336C16.4986 0.485154 15.536 0.485154 14.9423 1.08336C14.3485 1.68156 14.3485 2.65144 14.9423 3.24965C15.536 3.84785 16.4986 3.84785 17.0924 3.24965Z" fill="#5EA72A"/>
<path d="M5.46304 6.31592C4.40808 6.31592 3.57031 7.15998 3.57031 8.22287C3.57031 9.28576 4.40808 10.1298 5.46304 10.1298C6.51801 10.1298 7.35577 9.28576 7.35577 8.22287C7.35577 7.19124 6.48698 6.31592 5.46304 6.31592Z" fill="#5EA72A"/>
<path d="M26.7783 5.34642C27.3058 5.34642 27.7402 4.90876 27.7402 4.37731C27.7402 3.84586 27.3058 3.4082 26.7783 3.4082C26.2508 3.4082 25.8164 3.84586 25.8164 4.37731C25.8164 4.90876 26.2508 5.34642 26.7783 5.34642Z" fill="#5EA72A"/>
<path d="M29.4166 10.1294C28.3927 10.1294 27.5859 10.9422 27.5859 11.9738C27.5859 13.0055 28.3927 13.8183 29.4166 13.8183C30.4405 13.8183 31.2473 13.0055 31.2473 11.9738C31.2473 10.9422 30.4095 10.1294 29.4166 10.1294Z" fill="#5EA72A"/>
<path d="M34.6306 14.6312C34.4754 13.881 33.8239 13.287 33.0171 13.287C32.5517 13.287 32.1173 13.4746 31.807 13.8184C31.0313 14.8501 29.8212 15.5066 28.4559 15.5066C26.6563 15.5066 25.1049 14.3499 24.5153 12.7243C24.4533 12.4742 24.2981 12.2554 24.0499 12.0991C26.5322 9.19173 28.7973 7.5974 29.1075 7.44109C29.4178 7.28478 29.635 7.3473 29.7902 7.53487C30.1315 8.06632 30.3797 8.69155 30.659 8.75407C30.9692 8.78533 31.3106 8.62903 31.4967 8.12884C31.6829 7.62866 31.2175 7.37857 31.0623 7.25352C30.9072 7.15974 29.9763 6.56577 29.4178 6.81586C27.0286 8.0038 24.2671 11.0674 23.4294 12.0053C22.9639 12.0678 22.5916 12.4742 22.5916 12.9744C22.5916 13.1307 22.6226 13.287 22.6847 13.412C22.6847 13.412 22.6847 13.412 22.6847 13.4433C22.6847 13.4746 22.7157 13.4746 22.7157 13.5058C23.9568 15.8504 26.284 17.5073 29.0455 17.7886C29.7591 19.3517 30.1315 21.1024 30.1315 22.9155C30.1315 29.8243 24.5774 35.4514 17.6891 35.4514C17.4099 35.4514 17.1306 35.4514 16.8203 35.4201C16.9444 35.5452 17.0685 35.7015 17.1616 35.8265C17.2857 35.8265 17.3788 35.8265 17.5029 35.8265C27.1528 35.8265 35.0029 27.9486 35.0029 18.195C35.0029 16.5069 34.6306 14.6312 34.6306 14.6312Z" fill="#5EA72A"/>
<path d="M21.7179 3.56535C22.3695 3.56535 22.928 3.03391 22.928 2.34615C22.928 1.68966 22.4005 1.12695 21.7179 1.12695C21.0663 1.12695 20.5078 1.6584 20.5078 2.34615C20.5078 3.00264 21.0663 3.56535 21.7179 3.56535Z" fill="#F26F21"/>
<path d="M9.99016 3.84606C9.99016 3.31461 9.55577 2.87695 9.02829 2.87695C8.5008 2.87695 8.06641 3.31461 8.06641 3.84606C8.06641 4.37751 8.5008 4.81517 9.02829 4.81517C9.5868 4.81517 9.99016 4.37751 9.99016 3.84606Z" fill="#F26F21"/>
<path d="M14.1158 17.0394C15.1398 17.0394 15.9465 16.2266 15.9465 15.195C15.9465 14.1634 15.1398 13.3506 14.1158 13.3506C13.0919 13.3506 12.2852 14.1634 12.2852 15.195C12.2852 16.2266 13.1229 17.0394 14.1158 17.0394Z" fill="#F26F21"/>
<path d="M21.3175 19.5078C20.5107 19.5078 19.8281 20.1643 19.8281 21.0084C19.8281 21.8212 20.4797 22.5089 21.3175 22.5089C22.1242 22.5089 22.8068 21.8524 22.8068 21.0084C22.8068 20.1956 22.1552 19.5078 21.3175 19.5078Z" fill="#F26F21"/>
<path d="M25.9707 23.0412C25.9707 22.9474 25.9397 22.8536 25.9087 22.7598C25.9087 22.7286 25.8777 22.666 25.8777 22.666C25.6605 21.9783 25.102 21.5406 24.2642 21.5094C23.3023 21.4468 22.7438 22.4472 22.7438 22.4472C21.7199 24.0416 19.9202 25.1044 17.9034 25.1044C17.4069 25.1044 16.9105 25.0419 16.445 24.9169C19.4548 19.2585 22.0922 17.5704 22.0922 17.5704C22.0922 17.5704 22.4025 17.8518 22.6507 17.883C23.2092 17.9768 23.7677 17.6017 23.5816 17.3829C23.2092 17.0077 22.3715 16.7576 22.1232 16.9452C18.4619 19.8213 16.2589 23.9478 15.7004 25.0419C15.5452 25.167 15.4521 25.3858 15.4521 25.6046C15.4521 25.9172 15.6383 26.1673 15.8865 26.2924C16.6312 26.6363 17.4379 26.8238 18.3378 26.8238C19.2066 26.8238 20.0133 26.6363 20.727 26.2924C20.727 26.2924 21.0372 26.1361 21.3475 26.1361C22.0922 26.1361 22.7128 26.7613 22.7128 27.5116C22.7128 27.5428 22.6507 29.95 20.727 32.4509H20.6959C19.7961 33.5763 18.4309 34.2953 16.9105 34.2953C15.1729 34.2953 13.6525 33.3887 12.8147 31.982C12.1011 30.6377 11.6977 29.0747 11.6977 27.4491C11.6977 23.7602 13.7456 20.5403 16.7863 18.9147C18.4309 18.1957 19.5479 16.5075 19.734 14.6318C19.7651 14.3192 19.7961 12.8187 18.6481 12.9125C18.617 12.9125 18.555 12.9125 18.5239 12.9125C17.1277 12.1622 13.9938 10.6304 10.7979 10.6304C10.4566 10.6304 9.89805 11.2869 9.80496 11.787C9.74291 12.0684 10.4255 12.0684 10.8599 11.6933C11.0771 11.5057 11.1702 11.1306 11.1702 11.1306C11.1702 11.1306 12.8147 10.5053 18.0585 13.3189C17.9654 13.4439 17.9344 13.694 17.9344 13.694C17.7482 16.0073 15.8555 17.8205 13.4973 17.8205C13.2491 17.8205 13.0319 17.7893 12.8147 17.758C12.6596 17.7267 12.4734 17.6955 12.2872 17.6955C11.5736 17.6955 10.922 18.0393 10.5496 18.6021H10.5186C9.4016 20.4777 8.75 22.6973 8.75 25.0419C8.75 28.5119 10.1463 31.6694 12.4424 33.9514L12.7837 34.2328C12.7837 34.2328 14.5523 35.8271 16.9725 35.7646C17.9344 35.7334 18.7722 35.5145 19.4238 35.2644C19.5479 35.2332 19.641 35.1706 19.734 35.1081C19.7961 35.0769 19.8271 35.0769 19.8892 35.0456C19.8892 35.0456 19.9202 35.0456 19.9202 35.0143C19.9512 34.9831 20.0133 34.9831 20.0443 34.9518H20.0754C20.1064 34.9206 20.1374 34.9206 20.1684 34.8893C23.7057 33.0136 26.1259 29.2622 26.1259 24.9481C26.1259 24.3229 26.0949 23.6664 25.9707 23.0412Z" fill="#F26F21"/>
</svg>
