<svg xmlns="http://www.w3.org/2000/svg" width="14" height="12" viewBox="0 0 14 12">
  <g id="無料のダウンロードのアイコン素材" transform="translate(0 -39.75)">
    <path id="Path_69022" data-name="Path 69022" d="M153.438,48.038a.457.457,0,0,0,.763,0l2.754-3.63a.3.3,0,0,0-.263-.53h-1.055a.518.518,0,0,1-.518-.518V40.366a.616.616,0,0,0-.616-.616h-1.369a.616.616,0,0,0-.615.616V43.36a.518.518,0,0,1-.518.518h-1.055a.3.3,0,0,0-.263.53Z" transform="translate(-146.82)" fill="#fff"/>
    <path id="Path_69023" data-name="Path 69023" d="M12.174,294.16v3.422H1.826V294.16H0v4.693a.744.744,0,0,0,.7.782H13.3a.744.744,0,0,0,.7-.782V294.16Z" transform="translate(0 -247.885)" fill="#fff"/>
  </g>
</svg>
