<svg xmlns="http://www.w3.org/2000/svg" width="13" height="17" viewBox="0 0 13 17">
  <path id="Icon_awesome-running" data-name="Icon awesome-running" d="M8.5,3.188A1.549,1.549,0,0,0,10,1.594,1.549,1.549,0,0,0,8.5,0,1.549,1.549,0,0,0,7,1.594,1.549,1.549,0,0,0,8.5,3.188ZM3.553,10.541,3.09,11.688H1a1.064,1.064,0,0,0,0,2.125H3.42A1.5,1.5,0,0,0,4.8,12.847l.275-.681-.333-.209a3.107,3.107,0,0,1-1.187-1.415ZM12,7.437H10.624L9.81,5.669A3.047,3.047,0,0,0,7.879,3.978l-2.221-.7a2.851,2.851,0,0,0-2.526.569l-1.24,1.01a1.106,1.106,0,0,0-.185,1.49.961.961,0,0,0,1.4.2l1.24-1.01a.93.93,0,0,1,.79-.2l.459.145-1.171,2.9a2.2,2.2,0,0,0,.822,2.667l2.656,1.666L7.047,15.62A1.076,1.076,0,0,0,7.7,16.951.945.945,0,0,0,8,17a1.009,1.009,0,0,0,.954-.745L9.944,12.9a1.646,1.646,0,0,0-.676-1.806l-1.914-1.2.978-2.6.633,1.376a1.5,1.5,0,0,0,1.347.893H12a1.064,1.064,0,0,0,0-2.125Z" fill="#20375f"/>
</svg>
