<svg xmlns="http://www.w3.org/2000/svg" width="16.545" height="13.438" viewBox="0 0 16.545 13.438">
  <path id="Icon_awesome-twitter" data-name="Icon awesome-twitter" d="M14.845,6.73c.011.147.011.294.011.441a9.582,9.582,0,0,1-9.648,9.648A9.582,9.582,0,0,1,0,15.3a7.015,7.015,0,0,0,.819.042,6.791,6.791,0,0,0,4.21-1.449,3.4,3.4,0,0,1-3.17-2.352,4.276,4.276,0,0,0,.64.052,3.586,3.586,0,0,0,.892-.115A3.391,3.391,0,0,1,.672,8.147V8.1a3.415,3.415,0,0,0,1.533.43A3.4,3.4,0,0,1,1.155,4,9.639,9.639,0,0,0,8.147,7.549a3.828,3.828,0,0,1-.084-.777,3.394,3.394,0,0,1,5.869-2.32,6.676,6.676,0,0,0,2.152-.819A3.382,3.382,0,0,1,14.593,5.5a6.8,6.8,0,0,0,1.953-.525,7.289,7.289,0,0,1-1.7,1.753Z" transform="translate(0 -3.381)" fill="#fff"/>
</svg>
