<svg xmlns="http://www.w3.org/2000/svg" width="16" height="12" viewBox="0 0 16 12">
  <path id="Icon_awesome-school" data-name="Icon awesome-school" d="M0,5.25v6.375A.388.388,0,0,0,.4,12h2V4.5H.8A.776.776,0,0,0,0,5.25ZM9,4.125H8.4V3.187A.194.194,0,0,0,8.2,3H7.8a.194.194,0,0,0-.2.188v1.5a.194.194,0,0,0,.2.188H9a.194.194,0,0,0,.2-.188V4.312A.194.194,0,0,0,9,4.125Zm3.444-1.5-4-2.5a.845.845,0,0,0-.887,0l-4,2.5A.739.739,0,0,0,3.2,3.25V12H6.4V8.625a.388.388,0,0,1,.4-.375H9.2a.388.388,0,0,1,.4.375V12h3.2V3.25a.739.739,0,0,0-.356-.624ZM8,6A1.941,1.941,0,0,1,6,4.125,1.941,1.941,0,0,1,8,2.25a1.941,1.941,0,0,1,2,1.875A1.941,1.941,0,0,1,8,6Zm7.2-1.5H13.6V12h2a.388.388,0,0,0,.4-.375V5.25A.776.776,0,0,0,15.2,4.5Z" fill="#20375f"/>
</svg>
