<svg xmlns="http://www.w3.org/2000/svg" width="15.757" height="17.042" viewBox="0 0 15.757 17.042">
  <g id="人脈アイコン1" transform="translate(-19.305)">
    <path id="Path_69117" data-name="Path 69117" d="M198.851,3.936a1.968,1.968,0,1,0-1.968-1.968A1.968,1.968,0,0,0,198.851,3.936Z" transform="translate(-171.667)" fill="#20375f"/>
    <path id="Path_69118" data-name="Path 69118" d="M182.162,129.5c1.352,0,2.736-.468,2.52-1.764a3.614,3.614,0,0,0-.854-1.594.385.385,0,0,0-.289-.021,2.617,2.617,0,0,1-2.754,0,.385.385,0,0,0-.289.021,3.614,3.614,0,0,0-.854,1.594C179.426,129.034,180.81,129.5,182.162,129.5Z" transform="translate(-154.978 -121.906)" fill="#20375f"/>
    <path id="Path_69119" data-name="Path 69119" d="M38.534,287.738a1.968,1.968,0,1,0-1.968-1.968A1.968,1.968,0,0,0,38.534,287.738Z" transform="translate(-16.687 -274.355)" fill="#20375f"/>
    <path id="Path_69120" data-name="Path 69120" d="M23.514,409.947a.383.383,0,0,0-.289-.021,2.618,2.618,0,0,1-2.754,0,.384.384,0,0,0-.289.021,3.611,3.611,0,0,0-.854,1.594c-.216,1.3,1.168,1.764,2.52,1.764s2.736-.468,2.52-1.764A3.614,3.614,0,0,0,23.514,409.947Z" transform="translate(0 -396.263)" fill="#20375f"/>
    <path id="Path_69121" data-name="Path 69121" d="M359.156,287.738a1.968,1.968,0,1,0-1.968-1.968A1.968,1.968,0,0,0,359.156,287.738Z" transform="translate(-326.636 -274.355)" fill="#20375f"/>
    <path id="Path_69122" data-name="Path 69122" d="M344.992,411.541a3.612,3.612,0,0,0-.853-1.594.384.384,0,0,0-.29-.021,2.618,2.618,0,0,1-2.754,0,.383.383,0,0,0-.289.021,3.614,3.614,0,0,0-.854,1.594c-.216,1.3,1.168,1.764,2.52,1.764S345.208,412.837,344.992,411.541Z" transform="translate(-309.953 -396.263)" fill="#20375f"/>
    <path id="Path_69123" data-name="Path 69123" d="M176.4,243.534l-2.346-1.354v-2.709a.324.324,0,1,0-.649,0v2.709l-2.346,1.354a.325.325,0,0,0,.325.562l2.346-1.355,2.346,1.354a.325.325,0,0,0,.325-.562Z" transform="translate(-146.542 -231.186)" fill="#20375f"/>
  </g>
</svg>
