<svg xmlns="http://www.w3.org/2000/svg" width="14.888" height="15.282" viewBox="0 0 14.888 15.282">
  <path id="Path_69026" data-name="Path 69026" d="M67.182,14.289c-.4-2.6-1.953-3.245-4.329-3.908-.837-.234-1.02-.358-1.02-1.155V8.748c.412-.4.562-.349.911-1.91.7,0,.658-.8.99-1.5.269-.575.044-.809-.184-.9C64.013,2.452,63.379.752,61,.447c-.99-.738-2.688-.368-3.4-.246a2.966,2.966,0,0,1-.993.062l.143.862A4.515,4.515,0,0,0,55.9,4.446c-.217.1-.414.339-.156.891.332.7.288,1.5.99,1.5.348,1.561.5,1.511.911,1.91v.477c0,.8-.184.921-1.02,1.155-2.376.664-3.931,1.313-4.329,3.908-.074.475,3.059.993,7.443.993.513,0,1.009-.007,1.484-.019l.382-.922a1.648,1.648,0,0,1-.71-1.323,2,2,0,0,1,3.961,0,1.62,1.62,0,0,1-.637,1.263l.313.759C66.219,14.845,67.223,14.561,67.182,14.289Z" transform="translate(-52.295 0)" fill="#20375f"/>
</svg>
