<svg xmlns="http://www.w3.org/2000/svg" width="18.262" height="18.262" viewBox="0 0 18.262 18.262">
  <path id="Icon_simple-instagram" data-name="Icon simple-instagram" d="M9.131,0C6.65,0,6.341.011,5.367.055A6.733,6.733,0,0,0,3.15.479,4.471,4.471,0,0,0,1.532,1.532,4.455,4.455,0,0,0,.479,3.15,6.713,6.713,0,0,0,.055,5.367C.009,6.341,0,6.65,0,9.131s.011,2.79.055,3.764a6.737,6.737,0,0,0,.425,2.217,4.478,4.478,0,0,0,1.053,1.618A4.465,4.465,0,0,0,3.15,17.782a6.741,6.741,0,0,0,2.217.425c.974.046,1.284.055,3.764.055s2.79-.011,3.764-.055a6.757,6.757,0,0,0,2.217-.425,4.666,4.666,0,0,0,2.671-2.671,6.737,6.737,0,0,0,.425-2.217c.046-.974.055-1.284.055-3.764s-.011-2.79-.055-3.764a6.753,6.753,0,0,0-.425-2.217,4.481,4.481,0,0,0-1.053-1.618A4.449,4.449,0,0,0,15.112.479,6.717,6.717,0,0,0,12.9.055C11.921.009,11.611,0,9.131,0Zm0,1.644c2.437,0,2.728.012,3.69.054a5.031,5.031,0,0,1,1.695.316,3,3,0,0,1,1.733,1.733,5.041,5.041,0,0,1,.314,1.695c.043.963.053,1.252.053,3.69s-.011,2.728-.056,3.69a5.139,5.139,0,0,1-.32,1.695,2.9,2.9,0,0,1-.684,1.052,2.849,2.849,0,0,1-1.05.682,5.078,5.078,0,0,1-1.7.314c-.969.043-1.255.053-3.7.053s-2.729-.011-3.7-.056a5.177,5.177,0,0,1-1.7-.32,2.828,2.828,0,0,1-1.049-.684,2.773,2.773,0,0,1-.685-1.05,5.182,5.182,0,0,1-.32-1.7c-.034-.959-.046-1.255-.046-3.686s.012-2.729.046-3.7a5.176,5.176,0,0,1,.32-1.7A2.707,2.707,0,0,1,2.66,2.67a2.7,2.7,0,0,1,1.049-.683,5.054,5.054,0,0,1,1.69-.32c.97-.034,1.255-.046,3.7-.046l.034.023Zm0,2.8A4.689,4.689,0,1,0,13.82,9.131,4.688,4.688,0,0,0,9.131,4.442Zm0,7.732a3.044,3.044,0,1,1,3.044-3.044A3.043,3.043,0,0,1,9.131,12.174ZM15.1,4.257a1.1,1.1,0,1,1-1.1-1.095A1.1,1.1,0,0,1,15.1,4.257Z" fill="#fff"/>
</svg>
