<svg xmlns="http://www.w3.org/2000/svg" width="133.015" height="20.302" viewBox="0 0 133.015 20.302">
  <path id="Path_69904" data-name="Path 69904" d="M7.491-1.764h5.151L10.108-9.753Zm.262-12.63h4.793l7.19,20.3h-4.6L13.827,1.734H6.348l-1.4,4.173H.508Zm13.361,0h4.449L33.648-.222V-14.395H37.6v20.3H33.359L25.067-8.513V5.908H21.114Zm31.177,0H57.1L50.308-1.723V5.908H46.066V-1.723L39.041-14.395h5l4.215,8.843Zm22.547,0V-10.8H68.764V5.908h-4.27V-10.8h-6.1v-3.595ZM91.484-10.8H80.741v4.311H90.6v3.526H80.741v5.22H91.98v3.65H76.595v-20.3H91.484Zm8.788,9.035h5.151l-2.534-7.989Zm.262-12.63h4.793l7.19,20.3h-4.6l-1.308-4.173H99.129l-1.4,4.173H93.289Zm26.887,0h6.1v20.3h-3.953V-7.825q0-.592.014-1.66t.014-1.646L125.754,5.908h-4.118L117.821-11.13q0,.578.014,1.646t.014,1.66V5.908H113.9v-20.3h6.171l3.691,15.963Z" transform="translate(-0.508 14.395)" fill="#fff"/>
</svg>
