<svg id="人物ボタン_1_" data-name="人物ボタン (1)" xmlns="http://www.w3.org/2000/svg" width="22" height="22" viewBox="0 0 18 18">
  <path id="Path_69908" data-name="Path 69908" d="M9,0a9,9,0,1,0,9,9A9,9,0,0,0,9,0ZM9,14.13c-2.434,0-4.174-.332-4.133-.635.221-1.656,1.557-1.815,2.4-2.494.381-.3.566-.229.566-.736V9.452c-.229-.254-.312-.222-.505-1.219-.391,0-.365-.508-.55-.958-.144-.351-.035-.5.086-.568a3.221,3.221,0,0,1,.476-2.118l-.079-.55A1.436,1.436,0,0,0,7.815,4c.393-.078,1.336-.314,1.886.157,1.32.194,1.671,1.279,1.413,2.543.126.061.252.21.1.576-.184.45-.159.958-.55.958-.193,1-.276.965-.505,1.219v.812c0,.508.185.432.566.736.848.679,2.184.838,2.4,2.494C13.174,13.8,11.434,14.129,9,14.13Z" fill="#20375f"/>
</svg>
