<svg xmlns="http://www.w3.org/2000/svg" width="10.965" height="18.067" viewBox="0 0 10.965 18.067">
  <g id="ビルのアイコン" transform="translate(-100.641)">
    <path id="Path_69082" data-name="Path 69082" d="M108.756,1.64V0H103.49V1.64h-2.849V18.067h3.992V15.1h2.98v2.964h3.993V1.64ZM103.18,13.193H102V11.28h1.177Zm0-3.864H102V7.416h1.177Zm0-3.863H102V3.554h1.177Zm2.355,7.727h-1.177V11.28h1.177Zm0-3.864h-1.177V7.416h1.177Zm0-3.863h-1.177V3.554h1.177Zm2.355,7.727h-1.177V11.28h1.177Zm0-3.864h-1.177V7.416h1.177Zm0-3.863h-1.177V3.554h1.177Zm2.355,7.727h-1.178V11.28h1.178Zm0-3.864h-1.178V7.416h1.178Zm0-3.863h-1.178V3.554h1.178Z" transform="translate(0)" fill="#20375f"/>
  </g>
</svg>
