<svg xmlns="http://www.w3.org/2000/svg" width="172" height="26.395" viewBox="0 0 172 26.395">
  <path id="Path_69076" data-name="Path 69076" d="M9.538,2.026H16.2L12.922-8.36Zm.338-16.42h6.2L25.371,12H19.422L17.73,6.574H8.059L6.243,12H.508Zm17.278,0h5.753L43.361,4.032V-14.395h5.112V12H42.987L32.265-6.748V12H27.154Zm40.315,0h6.216L64.9,2.08V12H59.418V2.08L50.335-14.395H56.8L62.25-2.9Zm29.155,0v4.674H88.769V12H83.248V-9.721h-7.89v-4.674Zm21.525,4.674H104.256v5.6h12.752V.468H104.256V7.255H118.79V12H98.9V-14.395h19.253ZM129.512,2.026h6.661L132.9-8.36Zm.338-16.42h6.2L145.346,12H139.4L137.7,6.574h-9.671L126.217,12h-5.735l1.759-4.957Zm34.767,0h7.89V12H167.4V-5.853q0-.77.018-2.158t.018-2.14L162.463,12h-5.325L152.2-10.151q0,.752.018,2.14t.018,2.158V12h-5.112V-14.395h7.979L159.88,6.359Z" transform="translate(-0.508 14.395)" fill="#20375f"/>
</svg>
