<svg xmlns="http://www.w3.org/2000/svg" width="12" height="12" viewBox="0 0 12 12">
  <path id="Path_70017" data-name="Path 70017" d="M6,0a6,6,0,1,0,6,6A6,6,0,0,0,6,0ZM6,9.42C4.377,9.419,3.217,9.2,3.244,9c.147-1.1,1.038-1.21,1.6-1.663.254-.2.377-.152.377-.491V6.3c-.152-.169-.208-.148-.337-.812-.26,0-.244-.339-.367-.639-.1-.234-.023-.335.057-.379A2.148,2.148,0,0,1,4.9,3.059l-.053-.367a.958.958,0,0,0,.367-.026c.262-.052.891-.209,1.258.1.88.129,1.114.852.942,1.7.084.04.168.14.068.384-.123.3-.106.639-.366.639-.129.664-.184.643-.337.812v.542c0,.339.123.288.377.491.565.452,1.456.559,1.6,1.663C8.782,9.2,7.623,9.419,6,9.42Z" fill="#fff"/>
</svg>
