<svg xmlns="http://www.w3.org/2000/svg" width="94.309" height="14.395" viewBox="0 0 94.309 14.395">
  <path id="Path_69076" data-name="Path 69076" d="M5.459-5.439H9.111L7.314-11.1Zm.186-8.955h3.4L14.141,0H10.879L9.951-2.959h-5.3L3.652,0H.508Zm9.473,0h3.154L24-4.346V-14.395h2.8V0H23.8L17.921-10.225V0h-2.8Zm22.105,0h3.408L35.817-5.41V0H32.809V-5.41l-4.98-8.984h3.545l2.988,6.27Zm15.986,0v2.549H48.9V0H45.875V-11.846H41.549v-2.549Zm11.8,2.549H57.394v3.057h6.992v2.5H57.394v3.7h7.969V0H54.455V-14.395H65.011Zm6.231,6.406h3.652L73.1-11.1Zm.186-8.955h3.4L79.924,0H76.662l-.928-2.959h-5.3L69.436,0H66.291Zm19.063,0h4.326V0h-2.8V-9.736q0-.42.01-1.177t.01-1.167L89.309,0h-2.92L83.684-12.08q0,.41.01,1.167t.01,1.177V0H80.9V-14.395h4.375L87.893-3.076Z" transform="translate(-0.508 14.395)" fill="#1877f2"/>
</svg>
