<svg xmlns="http://www.w3.org/2000/svg" width="12.774" height="12.09" viewBox="0 0 12.774 12.09">
  <g id="無料のダウンロードのアイコン素材_1_" data-name="無料のダウンロードのアイコン素材 (1)" transform="translate(0 -39.75)">
    <path id="Path_69087" data-name="Path 69087" d="M153.179,47.287a.415.415,0,0,0,.694,0l2.5-3.3a.276.276,0,0,0-.239-.482h-.959a.471.471,0,0,1-.471-.471V40.31a.56.56,0,0,0-.56-.56H152.9a.56.56,0,0,0-.56.56v2.723a.471.471,0,0,1-.471.471h-.959a.276.276,0,0,0-.239.482Z" transform="translate(-147.079)" fill="#fff"/>
    <path id="Path_69088" data-name="Path 69088" d="M10.908,294.16v3.111H1.867V294.16H0v4.267a.712.712,0,0,0,.711.711H12.063a.712.712,0,0,0,.711-.711V294.16Z" transform="translate(0 -247.298)" fill="#fff"/>
  </g>
</svg>

