<?xml version="1.0" standalone="no"?>
<!DOCTYPE svg PUBLIC "-//W3C//DTD SVG 20010904//EN"
 "http://www.w3.org/TR/2001/REC-SVG-20010904/DTD/svg10.dtd">
<svg version="1.0" xmlns="http://www.w3.org/2000/svg"
 width="752.000000pt" height="980.000000pt" viewBox="0 0 752.000000 980.000000"
 preserveAspectRatio="xMidYMid meet">

<g transform="translate(0.000000,980.000000) scale(0.100000,-0.100000)"
fill="#000000" stroke="none">
<path d="M3465 9789 c-1207 -97 -2288 -765 -2920 -1804 -269 -442 -437 -929
-511 -1480 -21 -154 -29 -598 -15 -765 57 -657 262 -1243 623 -1782 72 -109
2888 -3817 2947 -3882 37 -40 117 -76 171 -76 54 0 134 36 171 76 58 64 2877
3777 2949 3884 345 517 549 1081 615 1705 20 188 19 571 -1 767 -89 861 -461
1644 -1074 2259 -176 176 -297 280 -485 414 -564 402 -1205 633 -1900 685
-159 11 -422 11 -570 -1z m705 -484 c917 -121 1709 -591 2253 -1337 625 -858
792 -1989 442 -2998 -95 -273 -222 -526 -389 -770 -98 -143 -2705 -3565 -2716
-3565 -12 0 -2625 3431 -2718 3568 -283 418 -452 853 -535 1377 -19 118 -21
177 -21 465 0 288 2 347 21 465 58 367 145 650 293 958 257 531 626 959 1115
1294 472 323 1026 515 1620 562 113 9 516 -3 635 -19z"/>
<path d="M3600 7519 c-650 -73 -1180 -572 -1291 -1217 -25 -151 -25 -343 0
-494 99 -577 536 -1045 1105 -1183 482 -118 993 18 1354 360 452 428 589 1087
343 1655 -256 589 -876 950 -1511 879z m407 -494 c280 -70 518 -264 648 -530
82 -167 100 -246 99 -440 0 -195 -18 -275 -99 -440 -99 -203 -249 -355 -450
-455 -149 -75 -266 -102 -440 -103 -249 0 -443 66 -631 218 -337 269 -461 720
-312 1131 33 93 112 226 185 310 134 158 368 291 568 323 39 6 81 13 95 15 59
11 243 -5 337 -29z"/>
</g>
</svg>
