<?xml version="1.0" standalone="no"?>
<!DOCTYPE svg PUBLIC "-//W3C//DTD SVG 20010904//EN"
 "http://www.w3.org/TR/2001/REC-SVG-20010904/DTD/svg10.dtd">
<svg version="1.0" xmlns="http://www.w3.org/2000/svg"
 width="200.000000pt" height="200.000000pt" viewBox="0 0 200.000000 200.000000"
 preserveAspectRatio="xMidYMid meet">

<g transform="translate(0.000000,200.000000) scale(0.100000,-0.100000)"
fill="#ffff" stroke="none">
<path d="M995 1981 c-154 -71 -150 -280 7 -346 47 -19 89 -19 136 0 160 67
160 283 0 350 -49 20 -94 19 -143 -4z"/>
<path d="M827 1549 c-80 -42 -136 -156 -162 -329 -17 -107 -20 -382 -5 -409 6
-13 2 -40 -13 -92 l-23 -74 -57 -3 c-36 -2 -57 -7 -56 -15 0 -7 12 -68 27
-137 l27 -125 157 -3 157 -3 16 78 c10 43 23 104 30 135 7 31 10 59 7 62 -3 3
-29 6 -57 6 l-52 0 -21 73 c-36 129 -17 548 29 627 5 9 9 -128 9 -332 l0 -348
66 0 c57 0 65 -2 60 -17 -6 -21 -66 -302 -66 -308 0 -3 -14 -5 -31 -5 l-31 0
4 -136 3 -136 33 -29 c46 -42 93 -40 138 5 l34 34 0 401 c0 394 0 401 20 401
20 0 20 -7 20 -401 l0 -401 34 -34 c45 -45 92 -47 138 -5 l33 29 5 649 c4 522
7 641 17 613 26 -75 36 -172 37 -344 1 -163 3 -179 21 -192 24 -18 66 -18 91
0 18 14 19 27 18 228 -1 184 -4 224 -23 293 -37 138 -81 210 -152 245 -34 18
-59 20 -241 20 -183 -1 -207 -3 -241 -21z m-64 -832 c24 -77 25 -77 -43 -77
-33 0 -60 1 -60 3 0 2 7 26 16 53 9 27 17 55 20 62 2 6 14 12 27 12 19 0 26
-9 40 -53z m-113 -217 c0 -64 -3 -80 -15 -80 -12 0 -15 16 -15 80 0 64 3 80
15 80 12 0 15 -16 15 -80z m90 0 c0 -73 -2 -80 -20 -80 -18 0 -20 7 -20 73 0
76 4 87 27 87 10 0 13 -20 13 -80z m90 0 c0 -73 -2 -80 -20 -80 -18 0 -20 7
-20 80 0 73 2 80 20 80 18 0 20 -7 20 -80z"/>
</g>
</svg>
