<?xml version="1.0" encoding="iso-8859-1"?>
<!-- Generator: Adobe Illustrator 19.0.0, SVG Export Plug-In . SVG Version: 6.00 Build 0)  -->
<svg version="1.1" id="Layer_1" xmlns="http://www.w3.org/2000/svg" xmlns:xlink="http://www.w3.org/1999/xlink" x="0px" y="0px"
	 viewBox="0 0 512 512" style="enable-background:new 0 0 512 512;" xml:space="preserve">
<g>
	<g>
		<path d="M458.667,37.589c-26.965,0-49.067,20.16-52.608,46.165l-301.675,56.555c-6.4-22.272-26.731-38.72-51.051-38.72
			C23.915,101.589,0,125.525,0,154.923v192c0,29.397,23.915,53.333,53.333,53.333c24.32,0,44.651-16.448,51.051-38.72l37.717,7.061
			l-13.205,44.331c-1.707,5.739-0.939,11.925,2.155,17.067c3.072,5.12,8.149,8.725,14.037,9.92l167.232,34.069
			c1.408,0.299,2.837,0.427,4.267,0.427c9.237,0,17.685-6.059,20.437-15.253L352.235,408l53.824,10.091
			c3.541,26.005,25.643,46.165,52.608,46.165c29.419,0,53.333-23.936,53.333-53.333v-320C512,61.525,488.085,37.589,458.667,37.589z
			 M64,165.589v170.667v10.667c0,5.888-4.8,10.667-10.667,10.667c-5.867,0-10.667-4.779-10.667-10.667v-192
			c0-5.888,4.8-10.667,10.667-10.667c5.867,0,10.667,4.779,10.667,10.667V165.589z M301.696,428.267l-125.248-25.493l7.808-26.261
			l125.803,23.595L301.696,428.267z M469.333,410.923c0,5.888-4.8,10.667-10.667,10.667S448,416.811,448,410.923v-10.667V101.589
			V90.923c0-5.888,4.8-10.667,10.667-10.667s10.667,4.779,10.667,10.667V410.923z"/>
	</g>
</g>
<g>
</g>
<g>
</g>
<g>
</g>
<g>
</g>
<g>
</g>
<g>
</g>
<g>
</g>
<g>
</g>
<g>
</g>
<g>
</g>
<g>
</g>
<g>
</g>
<g>
</g>
<g>
</g>
<g>
</g>
</svg>
