<?xml version="1.0" standalone="no"?>
<!DOCTYPE svg PUBLIC "-//W3C//DTD SVG 20010904//EN"
 "http://www.w3.org/TR/2001/REC-SVG-20010904/DTD/svg10.dtd">
<svg version="1.0" xmlns="http://www.w3.org/2000/svg"
 width="512.000000pt" height="512.000000pt" viewBox="0 0 512.000000 512.000000"
 preserveAspectRatio="xMidYMid meet">

<g transform="translate(0.000000,512.000000) scale(0.100000,-0.100000)"
fill="#000000" stroke="none">
<path d="M2419 5109 c-522 -26 -1047 -227 -1456 -557 l-83 -67 1528 -5 1527
-5 46 -21 c25 -12 62 -38 82 -59 69 -71 68 -52 65 -896 l-3 -754 -25 -45 c-29
-52 -95 -105 -148 -120 -20 -5 -121 -10 -224 -10 l-186 0 16 -32 c15 -29 18
-89 22 -493 l5 -460 -45 -140 -45 -140 3 -142 3 -143 35 0 34 0 0 -80 0 -80
45 0 45 0 0 -37 c2 -138 19 -545 24 -550 8 -8 167 80 280 155 677 447 1107
1196 1144 1993 22 460 -60 862 -258 1264 -251 512 -653 914 -1165 1165 -311
153 -644 243 -954 256 -64 3 -129 6 -146 7 -16 2 -91 0 -166 -4z"/>
<path d="M68 3123 c-84 -380 -80 -804 12 -1173 112 -451 347 -867 675 -1195
436 -436 1040 -710 1632 -742 l113 -6 0 426 0 427 40 0 40 0 0 80 0 80 35 0
35 0 0 51 0 52 -152 156 c-157 160 -383 345 -598 487 -52 34 -108 76 -124 93
-29 30 -29 32 -18 82 16 69 44 104 97 125 63 23 95 16 311 -72 148 -60 188
-73 200 -63 12 9 14 66 14 325 l0 314 -1039 0 c-1139 0 -1081 -3 -1161 60 -21
17 -49 52 -62 78 -21 44 -23 62 -28 270 l-5 224 -17 -79z"/>
<path d="M3298 2563 c7 -3 16 -2 19 1 4 3 -2 6 -13 5 -11 0 -14 -3 -6 -6z"/>
</g>
</svg>
