<?xml version="1.0" encoding="utf-8"?>
<!-- Svg Vector Icons : http://www.onlinewebfonts.com/icon -->
<!DOCTYPE svg PUBLIC "-//W3C//DTD SVG 1.1//EN" "http://www.w3.org/Graphics/SVG/1.1/DTD/svg11.dtd">
<svg version="1.1" xmlns="http://www.w3.org/2000/svg" xmlns:xlink="http://www.w3.org/1999/xlink" x="0px" y="0px" viewBox="0 0 1000 1000" enable-background="new 0 0 1000 1000" xml:space="preserve">
<metadata> Svg Vector Icons : http://www.onlinewebfonts.com/icon </metadata>
<g><path d="M601.5,135.9L407.5,23.7l-194.1,112l-0.1,224.1L407.3,472l194.1-112L601.5,135.9z M567.3,340.2l-159.9,92.3l-159.9-92.4l0.1-184.6l159.9-92.3l159.9,92.4L567.3,340.2z"/><path d="M10.1,503.8L10,727.9L204.1,840l194.1-112l0.1-224.1L204.2,391.8L10.1,503.8z M364,708.3l-159.9,92.3L44.2,708.1l0.1-184.6l159.9-92.3l159.9,92.4L364,708.3z"/><path d="M710.7,331.2L431.3,492.3l-0.1,322.5l279.3,161.4l279.4-161.2l0.1-322.5L710.7,331.2z M955.7,795.3L710.5,936.8L465.4,795.1l0.1-283l245.2-141.4l245.1,141.6L955.7,795.3z"/><path d="M554.7,534h34.2v34.2h-34.2V534z"/><path d="M554.7,638.3h34.2v34.2h-34.2V638.3z"/><path d="M554.7,739.2h34.2v34.2h-34.2V739.2z"/><path d="M619.9,534h246.6v34.2H619.9V534L619.9,534z"/><path d="M619.9,638.3h246.6v34.2H619.9V638.3L619.9,638.3z"/><path d="M619.9,739.2h246.6v34.2H619.9V739.2L619.9,739.2z"/></g>
</svg>