<?xml version="1.0" encoding="utf-8"?>
<!-- Svg Vector Icons : http://www.onlinewebfonts.com/icon -->
<!DOCTYPE svg PUBLIC "-//W3C//DTD SVG 1.1//EN" "http://www.w3.org/Graphics/SVG/1.1/DTD/svg11.dtd">
<svg version="1.1" xmlns="http://www.w3.org/2000/svg" xmlns:xlink="http://www.w3.org/1999/xlink" x="0px" y="0px" viewBox="0 0 1000 1000" enable-background="new 0 0 1000 1000" xml:space="preserve">
<metadata> Svg Vector Icons : http://www.onlinewebfonts.com/icon </metadata>
<g><path d="M381.8,795.3c-11.3,0-20.4-9.1-20.4-20.4V259.3c0-11.3,9.1-20.4,20.4-20.4c11.3,0,20.4,9.1,20.4,20.4v515.6C402.2,786.1,393,795.3,381.8,795.3z"/><path d="M463.8,353.5c-6.1,0-12-2.7-16.1-7.8l-66-83.6l-66,83.6c-7,8.8-19.8,10.4-28.7,3.4c-8.8-7-10.4-19.8-3.4-28.7l82.1-103.9c3.9-4.9,9.8-7.8,16-7.8l0,0c6.2,0,12.1,2.9,16,7.8l82,103.9c7,8.8,5.5,21.7-3.4,28.7C472.7,352.1,468.2,353.5,463.8,353.5z"/><path d="M618.2,761.1c-11.3,0-20.4-9.1-20.4-20.4V225.1c0-11.3,9.1-20.4,20.4-20.4s20.4,9.1,20.4,20.4v515.6C638.7,752,629.5,761.1,618.2,761.1z"/><path d="M618.2,791.2L618.2,791.2c-6.2,0-12.1-2.9-16-7.8l-82-103.9c-7-8.8-5.5-21.7,3.4-28.7c8.9-7,21.7-5.4,28.7,3.4l66,83.6l66-83.6c7-8.8,19.8-10.3,28.7-3.4c8.8,7,10.4,19.8,3.4,28.7l-82.1,103.9C630.4,788.4,624.5,791.2,618.2,791.2z"/><path d="M500,990C229.8,990,10,770.2,10,500C10,229.8,229.8,10,500,10C770.2,10,990,229.8,990,500C990,770.2,770.2,990,500,990z M500,50.8C252.3,50.8,50.8,252.3,50.8,500c0,247.7,201.5,449.2,449.2,449.2S949.2,747.7,949.2,500C949.2,252.3,747.7,50.8,500,50.8z"/></g>
</svg>