<?xml version="1.0" standalone="no"?>
<!DOCTYPE svg PUBLIC "-//W3C//DTD SVG 20010904//EN"
 "http://www.w3.org/TR/2001/REC-SVG-20010904/DTD/svg10.dtd">
<svg version="1.0" xmlns="http://www.w3.org/2000/svg"
 width="96.000000pt" height="64.000000pt" viewBox="0 0 96.000000 64.000000"
 preserveAspectRatio="xMidYMid meet">

<g transform="translate(0.000000,64.000000) scale(0.100000,-0.100000)"
fill="#000000" stroke="none">
<path d="M0 320 l0 -320 480 0 480 0 0 320 0 320 -480 0 -480 0 0 -320z m506
138 l20 -63 80 -5 79 -5 -62 -44 c-35 -25 -63 -47 -63 -50 0 -4 11 -36 24 -74
13 -37 21 -67 19 -67 -3 0 -31 20 -62 45 l-58 44 -62 -45 c-33 -24 -61 -40
-61 -36 0 5 9 35 20 67 11 32 20 61 20 65 0 4 -27 26 -60 50 -33 24 -60 45
-60 47 0 3 35 3 78 2 l77 -2 20 66 c11 37 23 67 26 67 3 0 14 -28 25 -62z"/>
</g>
</svg>
