<?xml version="1.0" encoding="utf-8"?>
<!-- Svg Vector Icons : http://www.onlinewebfonts.com/icon -->
<!DOCTYPE svg PUBLIC "-//W3C//DTD SVG 1.1//EN" "http://www.w3.org/Graphics/SVG/1.1/DTD/svg11.dtd">
<svg version="1.1" xmlns="http://www.w3.org/2000/svg" xmlns:xlink="http://www.w3.org/1999/xlink" x="0px" y="0px" viewBox="0 0 1000 1000" enable-background="new 0 0 1000 1000" xml:space="preserve">
<metadata> Svg Vector Icons : http://www.onlinewebfonts.com/icon </metadata>
<g><path d="M974.3,443.1L604.3,813l-18.9,19L443.1,974.3c-21,21-54.9,20.9-75.9,0l-37.9-38l-37.9-38l-38-37.9c31.4-31.4,31.4-82.5,0-113.9c-31.4-31.4-82.4-31.4-113.8,0l-38-37.9l-37.9-38l-37.9-38c-21-21-21-54.9,0-75.9L168,414.6l18.9-19l370-369.9c21-21,54.9-21,75.9,0l56.9,56.9l19,18.9l37.9,38c-31.4,31.4-31.4,82.4,0,113.8c31.4,31.4,82.4,31.4,113.9,0l37.9,38l56.9,56.9l19,18.9C995.2,388.1,995.3,422.1,974.3,443.1L974.3,443.1L974.3,443.1z M852.5,321.3c-48.1,18.8-104.9,8.9-143.7-29.9c-38.9-38.9-48.8-95.7-30-143.8l-64.9-64.9c-10.5-10.5-27.5-10.5-38,0L234.4,424.1l28.5,28.5c5.2,5.2,5.2,13.7,0,19l-19,18.9c-5.2,5.2-13.7,5.2-18.9,0L196.5,462L82.6,575.9c-10.5,10.5-10.5,27.5,0,38l64.9,64.9c48.1-18.8,104.9-8.9,143.8,30c38.9,38.9,48.7,95.6,29.9,143.7l64.9,65c10.4,10.4,27.4,10.5,37.9,0l113.8-113.9l-28.5-28.5c-5.2-5.2-5.2-13.7,0-19l19-18.9c5.2-5.2,13.7-5.2,18.9,0l28.5,28.4l341.5-341.5c10.5-10.5,10.4-27.5,0-37.9L852.5,321.3L852.5,321.3L852.5,321.3z M490.5,699.2l-19,19c-5.2,5.2-13.7,5.2-19,0l-56.9-56.9c-5.2-5.3-5.2-13.7,0-19l19-18.9c5.2-5.2,13.7-5.3,19,0l56.9,56.9C495.8,685.4,495.8,694,490.5,699.2L490.5,699.2L490.5,699.2z M376.7,585.4l-19,18.9c-5.2,5.2-13.7,5.2-19,0l-56.9-56.9c-5.2-5.2-5.2-13.7,0-18.9l19-19c5.2-5.2,13.7-5.2,19,0l56.9,56.9C381.9,571.6,381.9,580.1,376.7,585.4L376.7,585.4L376.7,585.4z"/></g>
</svg>