<?xml version="1.0" encoding="utf-8"?>
<!-- Svg Vector Icons : http://www.onlinewebfonts.com/icon -->
<!DOCTYPE svg PUBLIC "-//W3C//DTD SVG 1.1//EN" "http://www.w3.org/Graphics/SVG/1.1/DTD/svg11.dtd">
<svg version="1.1" xmlns="http://www.w3.org/2000/svg" xmlns:xlink="http://www.w3.org/1999/xlink" x="0px" y="0px" viewBox="0 0 1000 1000" enable-background="new 0 0 1000 1000" xml:space="preserve">
<metadata> Svg Vector Icons : http://www.onlinewebfonts.com/icon </metadata>
<g><path d="M951.5,309.3c-24.7-58.4-60-110.8-105-155.7s-97.4-80.3-155.7-105C630.3,23,566.1,10,500,10S369.7,23,309.3,48.5c-58.4,24.7-110.8,60-155.7,105c-45,45-80.3,97.4-105,155.7C23,369.7,10,433.9,10,500c0,66.1,13,130.3,38.5,190.7c24.7,58.4,60,110.8,105,155.7c45,45,97.4,80.3,155.7,105C369.7,977,433.9,990,500,990c66.1,0,130.3-13,190.7-38.5c58.4-24.7,110.8-60,155.7-105c45-45,80.3-97.4,105-155.7C977,630.3,990,566.1,990,500C990,433.9,977,369.7,951.5,309.3z M500,949C252,949,51,748,51,500C51,252,252,51,500,51c248,0,449,201,449,449C949,748,748,949,500,949z M609,357H645c5.4,0,9.8-4.6,9.8-10.1v-81.6c0-5.6-4.4-10.1-9.8-10.1H609c-5.4,0-9.9,4.6-9.9,10.1v81.6C599,352.5,603.5,357,609,357z M355,357h36c5.4,0,9.9-4.6,9.9-10.1v-81.6c0-5.6-4.4-10.1-9.9-10.1h-36c-5.5,0-9.9,4.6-9.9,10.1v81.6C345.2,352.5,349.5,357,355,357z M687.4,294.2h-12.7v52.7c0,16.9-13.4,30.7-29.8,30.7H609c-16.4,0-29.8-13.8-29.8-30.7v-52.7H420.8v52.7c0,16.9-13.4,30.7-29.8,30.7h-36c-16.4,0-29.8-13.8-29.8-30.7v-52.7h-12.8c-31.6,0-57.3,26.4-57.3,59v109.5v223c0,32.6,25.7,59.1,57.3,59.1h375c31.7,0,57.4-26.5,57.4-59.1v-223V353.2C744.9,320.6,719.1,294.2,687.4,294.2z M708.5,477.1v208.7c0,12-9.5,21.7-21.1,21.7h-375c-11.6,0-21-9.7-21-21.7V477.1c0,0-3.2-28.7,16.8-28.7c66.9,0,313.3,0,382.2,0C719.4,448.4,708.5,477.1,708.5,477.1z"/></g>
</svg>