<svg xmlns="http://www.w3.org/2000/svg" width="17" height="17" viewBox="0 0 12 9">
  <path id="Icon_awesome-school" data-name="Icon awesome-school" d="M0,3.937V8.719A.291.291,0,0,0,.3,9H1.8V3.375H.6A.582.582,0,0,0,0,3.937Zm6.75-.844H6.3v-.7a.145.145,0,0,0-.15-.141h-.3a.146.146,0,0,0-.15.141V3.516a.146.146,0,0,0,.15.141h.9a.145.145,0,0,0,.15-.141V3.234A.145.145,0,0,0,6.75,3.094ZM9.333,1.969l-3-1.875a.634.634,0,0,0-.666,0l-3,1.875a.554.554,0,0,0-.267.468V9H4.8V6.469a.291.291,0,0,1,.3-.281H6.9a.291.291,0,0,1,.3.281V9H9.6V2.438a.554.554,0,0,0-.267-.468ZM6,4.5A1.455,1.455,0,0,1,4.5,3.094,1.455,1.455,0,0,1,6,1.687,1.455,1.455,0,0,1,7.5,3.094,1.455,1.455,0,0,1,6,4.5Zm5.4-1.125H10.2V9h1.5a.291.291,0,0,0,.3-.281V3.937A.582.582,0,0,0,11.4,3.375Z" fill="#20375f"/>
</svg>
