<svg xmlns="http://www.w3.org/2000/svg" width="17" height="17" viewBox="0 0 12 11">
  <path id="Path_69958" data-name="Path 69958" d="M11.665,8.8a1.165,1.165,0,0,0-.85-.367h-1.1c-.055-.741-.587-.638-.795-.638H3.082c-.207,0-.739-.1-.795.638h-1.1a1.165,1.165,0,0,0-.85.367,1.4,1.4,0,0,0-.322,1.15,2.624,2.624,0,0,0,1.268,2,4.586,4.586,0,0,0,1.655.671c.112.023.225.043.341.059l0,.005c2.387,2.375,2.1,1,2.1,3.178,0,.844-1.237.571-1.237,1.219s-.964.115-.875.883c.055.471,1.531.824,2.734.824s2.679-.353,2.734-.824c.089-.769-.875-.235-.875-.883s-1.237-.375-1.237-1.219c0-2.177-.292-.8,2.1-3.178l.01-.01a4.605,4.605,0,0,0,1.991-.725,2.624,2.624,0,0,0,1.268-2A1.4,1.4,0,0,0,11.665,8.8Zm-.62,1.06,0,.022v.03a1.734,1.734,0,0,1-.858,1.3,3.812,3.812,0,0,1-.645.339c-.047.018-.094.036-.143.052A6.612,6.612,0,0,0,9.726,9.33h1.089a.188.188,0,0,1,.14.064A.587.587,0,0,1,11.044,9.861ZM1.818,11.214a1.734,1.734,0,0,1-.858-1.3v-.02l0-.032a.587.587,0,0,1,.089-.467.188.188,0,0,1,.14-.064H2.274A7.286,7.286,0,0,0,2.5,11.266c.031.115.066.229.106.341A3.753,3.753,0,0,1,1.818,11.214Z" transform="translate(0 -7.792)" fill="#20375f"/>
</svg>
