<svg xmlns="http://www.w3.org/2000/svg" width="17" height="17" viewBox="0 0 10 13">
  <path id="Icon_awesome-running" data-name="Icon awesome-running" d="M6.538,2.438A1.188,1.188,0,0,0,7.692,1.219,1.188,1.188,0,0,0,6.538,0,1.188,1.188,0,0,0,5.385,1.219,1.188,1.188,0,0,0,6.538,2.438ZM2.733,8.061l-.356.877H.769a.814.814,0,0,0,0,1.625H2.631a1.152,1.152,0,0,0,1.06-.739L3.9,9.3l-.256-.16A2.38,2.38,0,0,1,2.733,8.061Zm6.5-2.374H8.172L7.546,4.335A2.34,2.34,0,0,0,6.061,3.042L4.352,2.505a2.2,2.2,0,0,0-1.943.435l-.954.772a.843.843,0,0,0-.142,1.139A.742.742,0,0,0,2.391,5l.954-.772a.718.718,0,0,1,.607-.156l.353.111L3.406,6.4a1.677,1.677,0,0,0,.632,2.039L6.081,9.717l-.66,2.228a.822.822,0,0,0,.5,1.018.731.731,0,0,0,.23.038.776.776,0,0,0,.734-.57l.761-2.566a1.255,1.255,0,0,0-.52-1.381L5.657,7.565l.753-1.988L6.9,6.629a1.157,1.157,0,0,0,1.036.683h1.3a.814.814,0,0,0,0-1.625Z" fill="#20375f"/>
</svg>
